####################################
# netfabb Wavefront export         #
####################################
v 28.08600 5.95600 10.33800
v 28.21400 5.89800 10.10800
v 31.04200 7.41400 7.10600
v 31.34600 8.02200 9.20400
v 30.85800 7.58800 8.21400
v 34.70600 9.70200 5.78600
v 31.17000 7.45600 8.25000
v 34.70600 9.79600 5.79200
v 34.56600 9.77400 5.76000
v 28.04200 5.17200 8.72800
v 28.03800 5.30400 9.05800
v 28.04800 4.97000 8.77200
v 28.04200 5.15600 9.09800
v 28.01600 6.23200 9.96000
v 28.01400 6.34600 10.76800
v 28.01000 6.46200 9.50000
v 28.02800 5.72000 10.61200
v 28.04400 5.08800 10.29800
v 28.03200 5.57000 10.38400
v 28.04200 5.14400 9.67400
v 28.04600 5.03400 6.93400
v 28.04600 5.02600 7.12400
v 28.04600 5.04800 7.12400
v 28.04200 5.16600 8.70800
v 28.02600 5.80000 9.49000
v 28.04800 4.97000 8.75000
####################################
vn -1.000 0.000 0.000
vn -1.000 -0.024 0.001
vn -1.000 0.000 0.000
vn -1.000 0.000 0.000
vn -1.000 -0.028 -0.001
vn -1.000 -0.019 0.001
vn -1.000 -0.025 0.000
vn -1.000 -0.023 0.000
vn -1.000 -0.023 0.001
vn -1.000 0.000 0.001
vn -0.999 -0.032 0.000
vn -0.999 -0.032 0.000
vn -1.000 -0.025 -0.001
vn -1.000 -0.028 0.001
vn -1.000 -0.024 0.000
vn 0.982 -0.025 0.187
vn 0.987 -0.126 0.100
vn 0.766 0.578 0.280
vn 0.767 0.578 0.279
vn 0.977 0.210 -0.027
vn 0.865 -0.062 0.497
vn 0.867 -0.066 0.493
vn 0.955 0.028 -0.295
vn 0.977 -0.210 -0.022
vn -0.619 0.783 -0.060
vn -0.619 0.783 -0.058
vn 0.623 -0.782 -0.028
vn 0.623 -0.782 -0.033
vn -0.574 0.815 -0.074
vn 0.650 -0.700 0.295
vn -0.541 0.835 -0.099
vn 0.522 -0.852 -0.027
vn 0.976 -0.220 -0.005
vn 0.593 -0.736 0.327
vn 0.618 -0.785 -0.040
vn 0.623 -0.782 0.000
vn 0.611 -0.683 0.401
vn 0.611 -0.684 0.398
vn 0.898 0.301 -0.321
vn -0.653 0.700 -0.288
vn -0.653 0.701 -0.287
vn -0.055 -0.432 -0.900
vn -0.258 0.740 0.621
vn -0.586 0.780 -0.220
vn -0.658 0.720 -0.222
vn -0.658 0.721 -0.216
vn 0.723 -0.044 0.689
vn 0.213 0.062 -0.975
####################################
f 23//1 21//1 22//1
f 25//2 14//2 16//2
f 24//3 13//3 20//3
f 10//4 24//4 20//4
f 11//5 10//5 20//5
f 11//6 20//6 18//6
f 19//7 11//7 18//7
f 14//8 25//8 17//8
f 15//9 14//9 17//9
f 23//10 22//10 26//10
f 13//11 23//11 26//11
f 13//12 26//12 12//12
f 23//13 13//13 24//13
f 11//14 19//14 17//14
f 11//15 17//15 25//15
f 15//16 17//16 1//16
f 19//17 1//17 17//17
f 2//18 14//18 1//18
f 2//19 16//19 14//19
f 15//20 1//20 14//20
f 1//21 19//21 2//21
f 18//22 2//22 19//22
f 25//23 16//23 2//23
f 2//24 18//24 20//24
f 24//25 3//25 23//25
f 21//26 23//26 3//26
f 26//27 22//27 3//27
f 21//28 3//28 22//28
f 2//29 4//29 5//29
f 6//30 4//30 7//30
f 5//31 4//31 8//31
f 6//32 7//32 3//32
f 2//33 20//33 13//33
f 7//34 4//34 2//34
f 3//35 7//35 26//35
f 12//36 26//36 7//36
f 13//37 12//37 7//37
f 2//38 13//38 7//38
f 2//39 11//39 25//39
f 11//40 5//40 10//40
f 2//41 5//41 11//41
f 3//42 9//42 6//42
f 8//43 9//43 3//43
f 3//44 5//44 8//44
f 3//45 24//45 5//45
f 10//46 5//46 24//46
f 6//47 8//47 4//47
f 9//48 8//48 6//48
####################################
