####################################
# netfabb Wavefront export         #
####################################
mtllib Snake_Body4.mtl
v 25.48084 28.91629 6.19510
v 25.71348 28.91629 6.20195
v 25.19229 28.91629 6.20558
v 25.16448 28.91629 6.21366
v 25.17023 28.91629 6.21199
v 25.50290 28.91629 6.19429
v 25.21435 28.91629 7.43961
v 25.52493 28.91629 7.45668
v 25.50290 28.91629 7.45810
v 26.29677 28.91629 6.49171
v 26.31000 28.91629 6.50668
v 26.33703 28.91629 6.77592
v 26.33910 28.91629 6.79650
v 25.71096 28.91629 7.44476
v 26.12381 28.91629 6.29585
v 24.66861 28.91629 6.81206
v 24.66640 28.91629 6.79650
v 24.67062 28.91629 6.82619
v 25.79117 28.91629 6.20478
v 26.10175 28.91629 6.28944
v 25.81321 28.91629 6.20558
v 24.69371 28.91629 6.52726
v 24.69580 28.91629 6.50668
v 24.86848 28.91629 6.31082
v 24.88169 28.91629 6.29585
v 24.88169 28.91629 7.24281
v 24.71066 28.91629 7.03178
v 25.43646 28.91633 6.82614
v 24.90375 28.91629 7.25669
v 25.81321 28.91629 7.43820
v 24.69758 28.91629 7.01565
v 25.17073 28.91629 7.42464
v 25.19229 28.91629 7.43820
v 25.83526 28.91629 7.42432
v 26.33487 28.91629 6.82619
v 26.31013 28.91629 7.00008
v 26.13688 28.91629 7.22668
v 26.12381 28.91629 7.24281
v 26.30792 28.91629 7.01565
v 25.77113 33.84628 6.20399
v 25.50268 33.84628 6.19435
v 25.46043 33.84628 6.19587
v 25.23025 33.84628 6.20414
v 25.50646 33.84633 6.82619
v 25.78243 33.84628 6.20439
v 25.23444 33.84628 7.44094
v 25.50268 33.84628 7.45785
v 25.54493 33.84628 7.45519
v 25.14995 33.84628 6.21781
v 25.19220 33.84628 6.20550
v 24.69562 33.84628 6.50657
v 24.85639 33.84628 6.32461
v 24.69167 33.84628 6.54602
v 24.88171 33.84628 6.29595
v 26.30776 33.84628 7.01554
v 26.31201 33.84628 6.98574
v 26.14892 33.84628 7.21185
v 26.33475 33.84628 6.82623
v 26.33899 33.84628 6.79649
v 26.12390 33.84628 7.24277
v 25.77904 33.84628 7.44043
v 25.81317 33.84628 7.43828
v 25.23355 33.84628 7.44089
v 25.85545 33.84628 7.41167
v 24.69760 33.84628 7.01554
v 24.67084 33.84628 6.82630
v 24.67083 33.84628 6.82623
v 24.72265 33.84628 7.04646
v 25.19220 33.84628 7.43828
v 24.92396 33.84628 7.26937
v 24.88171 33.84628 7.24277
v 26.08165 33.84628 6.28364
v 25.81341 33.84628 6.20550
v 24.66663 33.84628 6.79649
v 26.12390 33.84628 6.29595
v 26.33504 33.84628 6.75704
v 26.30999 33.84628 6.50657
v 26.28467 33.84628 6.47791
v 25.19224 33.11897 6.20555
v 25.50276 33.11897 6.19433
v 24.88171 33.11897 6.29589
v 25.81330 33.11897 6.20555
v 26.12383 33.11897 6.29589
v 25.81328 33.11897 7.43821
v 25.50276 33.11897 7.45797
v 26.12383 33.11897 7.24285
v 24.69770 33.11897 7.01560
v 24.66652 33.11897 6.79642
v 25.19226 33.11897 7.43821
v 24.88171 33.11897 7.24285
v 24.69566 33.11897 6.50662
v 26.33902 33.11897 6.79642
v 26.30988 33.11897 6.50662
v 26.30784 33.11897 7.01560
vn 0.000 1.000 0.000
vn 0.000 1.000 0.000
vn 0.000 1.000 0.000
vn 0.000 1.000 0.000
vn 0.000 1.000 0.000
vn 0.000 1.000 0.000
vn 0.000 1.000 0.000
vn 0.000 1.000 0.000
vn 0.000 1.000 0.000
vn 0.000 1.000 0.000
vn 0.000 1.000 0.000
vn 0.000 1.000 0.000
vn 0.000 1.000 0.000
vn 0.000 1.000 0.000
vn 0.000 1.000 0.000
vn 0.000 1.000 0.000
vn 0.000 1.000 0.000
vn 0.000 1.000 0.000
vn 0.000 1.000 0.000
vn 0.000 1.000 0.000
vn 0.000 1.000 0.000
vn 0.000 1.000 0.000
vn 0.000 1.000 0.000
vn 0.000 1.000 0.000
vn 0.000 1.000 0.000
vn 0.000 1.000 0.000
vn 0.000 1.000 0.000
vn 0.000 1.000 0.000
vn 0.000 1.000 0.000
vn 0.000 0.000 0.000
vn 0.000 0.000 0.000
vn 0.000 1.000 0.000
vn 0.000 1.000 0.000
vn 0.000 1.000 0.000
vn 0.000 1.000 0.000
vn 0.000 1.000 0.000
vn 0.000 1.000 0.000
vn 0.000 1.000 0.000
vn 0.000 -1.000 0.000
vn 0.000 -1.000 0.000
vn 0.000 -1.000 0.000
vn 0.000 -1.000 0.000
vn 0.000 -1.000 0.000
vn 0.000 -1.000 0.000
vn 0.000 -1.000 0.000
vn 0.000 -1.000 0.000
vn 0.000 -1.000 0.000
vn 0.000 -1.000 0.000
vn 0.000 -1.000 0.000
vn 0.000 -1.000 0.000
vn 0.000 -1.000 0.000
vn 0.000 -1.000 0.000
vn 0.000 -1.000 0.000
vn 0.000 -1.000 0.000
vn 0.000 -1.000 0.000
vn 0.000 -1.000 0.000
vn 0.000 -1.000 0.000
vn 0.000 -1.000 0.000
vn 0.000 -1.000 0.000
vn 0.000 -1.000 0.000
vn 0.000 -1.000 0.000
vn 0.000 -1.000 0.000
vn 0.000 -1.000 0.000
vn 0.000 -1.000 0.000
vn 0.000 -1.000 0.000
vn 0.000 -1.000 0.000
vn 0.000 -1.000 0.000
vn 0.000 -1.000 0.000
vn 0.000 -1.000 0.000
vn 0.000 -1.000 0.000
vn 0.000 -1.000 0.000
vn 0.000 -1.000 0.000
vn 0.000 -1.000 0.000
vn 0.000 -1.000 0.000
vn 0.000 -1.000 0.000
vn 0.000 -1.000 0.000
vn 0.036 0.000 -0.999
vn 0.036 0.000 -0.999
vn 0.036 0.000 -0.999
vn 0.036 0.000 -0.999
vn 0.036 0.000 -0.999
vn 0.036 0.000 -0.999
vn 0.036 0.000 -0.999
vn 0.036 0.000 -0.999
vn 0.280 0.000 -0.960
vn 0.279 0.000 -0.960
vn 0.279 0.000 -0.960
vn 0.280 0.000 -0.960
vn 0.279 0.000 -0.960
vn 0.279 0.000 -0.960
vn -0.036 0.000 -0.999
vn -0.036 0.000 -0.999
vn -0.036 0.000 -0.999
vn -0.036 0.000 -0.999
vn -0.036 0.000 -0.999
vn -0.036 0.000 -0.999
vn -0.036 0.000 -0.999
vn -0.279 0.000 -0.960
vn -0.280 0.000 -0.960
vn -0.279 0.000 -0.960
vn -0.280 0.000 -0.960
vn -0.279 0.000 -0.960
vn -0.279 0.000 -0.960
vn -0.279 0.000 -0.960
vn 0.749 0.000 -0.662
vn 0.750 0.000 -0.662
vn 0.750 0.000 -0.662
vn 0.749 0.000 -0.662
vn 0.750 0.000 -0.662
vn 0.750 0.000 -0.662
vn 0.995 0.000 -0.100
vn 0.995 0.000 -0.100
vn 0.995 0.000 -0.100
vn 0.995 0.000 -0.100
vn 0.995 0.000 -0.099
vn 0.995 0.000 -0.100
vn -0.750 0.000 -0.662
vn -0.749 0.000 -0.662
vn -0.749 0.000 -0.662
vn -0.750 0.000 -0.661
vn -0.750 0.000 -0.661
vn -0.750 0.000 -0.662
vn 0.990 0.000 0.141
vn 0.990 0.000 0.141
vn 0.990 0.000 0.141
vn 0.990 0.000 0.141
vn 0.990 0.000 0.141
vn 0.990 0.000 0.141
vn 0.990 0.000 0.141
vn 0.990 0.000 0.141
vn -0.995 0.000 -0.100
vn -0.995 0.000 -0.100
vn -0.995 0.000 -0.100
vn -0.995 0.000 -0.101
vn -0.995 0.000 -0.101
vn -0.995 0.000 -0.100
vn 0.777 0.000 0.629
vn 0.777 0.000 0.629
vn 0.777 0.000 0.629
vn 0.777 0.000 0.629
vn 0.777 0.000 0.630
vn 0.777 0.000 0.630
vn -0.990 0.000 0.141
vn -0.990 0.000 0.140
vn -0.990 0.000 0.140
vn 0.000 0.000 0.000
vn -0.990 0.000 0.141
vn -0.990 0.000 0.141
vn -0.990 0.000 0.141
vn -0.990 0.000 0.141
vn 0.063 0.000 0.998
vn 0.064 0.000 0.998
vn 0.063 0.000 0.998
vn 0.063 0.000 0.998
vn 0.064 0.000 0.998
vn 0.064 0.000 0.998
vn 0.064 0.000 0.998
vn 0.064 0.000 0.998
vn 0.532 0.000 0.846
vn 0.533 0.000 0.846
vn 0.533 0.000 0.846
vn 0.532 0.000 0.846
vn 0.532 0.000 0.846
vn 0.532 0.000 0.846
vn -0.777 0.000 0.629
vn -0.777 0.000 0.630
vn -0.777 0.000 0.630
vn -0.777 0.000 0.630
vn -0.777 0.000 0.630
vn -0.777 0.000 0.629
vn -0.532 0.000 0.846
vn -0.533 0.000 0.846
vn -0.533 0.000 0.846
vn -0.532 0.000 0.846
vn -0.532 0.000 0.846
vn -0.532 0.000 0.846
vn -0.532 0.000 0.846
vn -0.063 0.000 0.998
vn -0.063 0.000 0.998
vn -0.063 0.000 0.998
vn -0.064 0.000 0.998
vn -0.064 0.000 0.998
vn -0.064 0.000 0.998
vn -0.064 0.000 0.998
vt 0.50196 0.46938 0.00000
vt 0.50280 0.46938 0.00000
vt 0.51373 0.65882 0.00000
vt 0.50196 0.65882 0.00000
vt 0.51373 0.46938 0.00000
vt 0.50196 0.69191 0.00000
vt 0.50356 0.69191 0.00000
vt 0.51373 0.69191 0.00000
vt 0.51228 0.69191 0.00000
vt 0.52941 0.65882 0.00000
vt 0.51586 0.69191 0.00000
vt 0.52941 0.46938 0.00000
vt 0.51513 0.46938 0.00000
vt 0.51484 0.46938 0.00000
vt 0.52941 0.69191 0.00000
vt 0.51289 0.46938 0.00000
vt 0.50994 0.46938 0.00000
vt 0.51255 0.69191 0.00000
vt 0.51212 0.69191 0.00000
vt 0.52728 0.69191 0.00000
vt 0.52830 0.46938 0.00000
vt 0.50985 0.46938 0.00000
vt 0.53725 0.46938 0.00000
vt 0.53725 0.65882 0.00000
vt 0.53725 0.69191 0.00000
vt 0.51243 0.69191 0.00000
vt 0.51216 0.69191 0.00000
vt 0.53670 0.46938 0.00000
vt 0.53619 0.69191 0.00000
vt 0.53048 0.69191 0.00000
vt 0.52997 0.46938 0.00000
usemtl material_1
f 1//51 2//51 3//51
f 4//52 5//52 2//52
f 5//49 3//49 2//49
f 2//50 1//50 6//50
f 7//53 8//53 9//53
f 2//56 10//56 11//56
f 2//57 12//57 13//57
f 7//54 14//54 8//54
f 2//55 15//55 10//55
f 2//48 11//48 12//48
f 16//41 17//41 4//41
f 18//42 16//42 4//42
f 2//39 19//39 20//39
f 19//40 21//40 20//40
f 2//43 20//43 15//43
f 22//46 23//46 4//46
f 23//47 24//47 4//47
f 24//44 25//44 4//44
f 17//45 22//45 4//45
f 26//70 27//70 28//70
f 29//71 26//71 28//71
f 28//68 30//68 14//68
f 27//69 31//69 28//69
f 32//72 29//72 28//72
f 7//75 33//75 28//75
f 14//76 7//76 28//76
f 18//73 28//73 31//73
f 33//74 32//74 28//74
f 28//67 34//67 30//67
f 2//60 13//60 28//60
f 28//61 4//61 2//61
f 28//58 18//58 4//58
f 35//59 28//59 13//59
f 28//62 35//62 36//62
f 28//65 37//65 38//65
f 28//66 38//66 34//66
f 28//63 36//63 39//63
f 28//64 39//64 37//64
f 40//13 41//13 42//13
f 43//14 44//14 45//14
f 45//11 40//11 43//11
f 46//12 47//12 48//12
f 49//15 43//15 50//15
f 51//18 43//18 52//18
f 53//19 43//19 51//19
f 54//16 43//16 49//16
f 52//17 43//17 54//17
f 42//10 43//10 40//10
f 44//3 55//3 56//3
f 44//4 57//4 55//4
f 58//1 59//1 44//1
f 44//2 56//2 58//2
f 44//5 60//5 57//5
f 44//8 61//8 62//8
f 44//9 63//9 61//9
f 44//6 64//6 60//6
f 44//7 62//7 64//7
f 48//32 61//32 46//32
f 65//33 44//33 66//33
f 67//30 66//30 44//30
f 46//31 61//31 63//31
f 68//34 44//34 65//34
f 69//37 44//37 70//37
f 63//38 44//38 69//38
f 71//35 44//35 68//35
f 70//36 44//36 71//36
f 45//29 44//29 59//29
f 44//22 43//22 67//22
f 45//23 72//23 73//23
f 74//20 43//20 53//20
f 67//21 43//21 74//21
f 45//24 75//24 72//24
f 45//27 76//27 77//27
f 45//28 59//28 76//28
f 45//25 78//25 75//25
f 45//26 77//26 78//26
usemtl material_2
f 6/1/95 1/2/95 79/3/95
f 80/4/96 6/1/96 79/3/96
f 3/5/97 79/3/97 1/2/97
f 41/6/94 80/4/94 42/7/94
f 79/3/91 50/8/91 43/9/91
f 79/3/92 43/9/92 42/7/92
f 79/3/93 42/7/93 80/4/93
f 81/10/102 49/11/102 79/3/102
f 25/12/103 81/10/103 4/13/103
f 5/14/104 4/13/104 81/10/104
f 81/10/101 54/15/101 49/11/101
f 3/5/98 5/14/98 81/10/98
f 50/8/99 79/3/99 49/11/99
f 79/3/100 3/5/100 81/10/100
f 19/16/81 2/17/81 80/4/81
f 21/5/82 19/16/82 80/4/82
f 82/3/83 21/5/83 80/4/83
f 73/8/80 82/3/80 45/18/80
f 80/4/77 41/6/77 40/19/77
f 80/4/78 40/19/78 82/3/78
f 40/19/79 45/18/79 82/3/79
f 75/15/88 83/10/88 72/20/88
f 15/12/89 20/21/89 82/3/89
f 21/5/90 82/3/90 20/21/90
f 83/10/87 15/12/87 82/3/87
f 6/1/84 80/4/84 2/17/84
f 82/3/85 73/8/85 72/20/85
f 82/3/86 72/20/86 83/10/86
usemtl material_3
f 84/3/158 85/4/158 8/2/158
f 84/3/159 86/10/159 64/11/159
f 84/3/157 8/2/157 14/22/157
f 9/1/155 8/2/155 85/4/155
f 84/3/156 14/22/156 30/5/156
f 86/10/163 84/3/163 34/14/163
f 30/5/164 34/14/164 84/3/164
f 86/10/162 34/14/162 38/12/162
f 60/15/160 64/11/160 86/10/160
f 84/3/161 64/11/161 62/8/161
f 18/23/148 31/23/148 87/24/148
f 16/23/149 18/23/149 87/24/149
f 17/23/147 16/23/147 88/24/147
f 67/25/145 74/25/145 88/24/145
f 66/25/146 67/25/146 88/24/146
f 85/4/153 48/7/153 47/6/153
f 62/8/154 61/26/154 84/3/154
f 85/4/152 84/3/152 61/26/152
f 87/24/150 88/24/150 16/23/150
f 85/4/151 61/26/151 48/7/151
f 89/3/178 63/27/178 69/8/178
f 89/3/179 46/19/179 63/27/179
f 89/3/177 90/10/177 29/21/177
f 89/3/175 29/21/175 32/14/175
f 26/12/176 29/21/176 90/10/176
f 33/5/183 7/16/183 89/3/183
f 85/4/184 89/3/184 7/16/184
f 85/4/182 7/16/182 9/1/182
f 47/6/180 46/19/180 85/4/180
f 89/3/181 85/4/181 46/19/181
f 27/28/168 26/12/168 90/10/168
f 31/23/169 27/28/169 87/24/169
f 68/29/167 65/25/167 87/24/167
f 87/24/165 90/10/165 68/29/165
f 71/15/166 68/29/166 90/10/166
f 69/8/173 70/20/173 89/3/173
f 89/3/174 32/14/174 33/5/174
f 90/10/172 70/20/172 71/15/172
f 90/10/170 87/24/170 27/28/170
f 90/10/171 89/3/171 70/20/171
f 51/25/118 52/30/118 91/24/118
f 52/30/119 54/15/119 81/10/119
f 81/10/117 91/24/117 52/30/117
f 76/25/115 92/24/115 77/25/115
f 11/23/116 93/24/116 12/23/116
f 35/23/123 92/24/123 36/23/123
f 13/23/124 92/24/124 35/23/124
f 91/24/122 81/10/122 24/31/122
f 24/31/120 23/23/120 91/24/120
f 25/12/121 24/31/121 81/10/121
f 78/29/108 93/24/108 75/15/108
f 10/28/109 83/10/109 11/23/109
f 83/10/107 75/15/107 93/24/107
f 77/25/105 93/24/105 78/29/105
f 93/24/106 11/23/106 83/10/106
f 92/24/113 13/23/113 93/24/113
f 93/24/114 77/25/114 92/24/114
f 59/25/112 92/24/112 76/25/112
f 15/12/110 83/10/110 10/28/110
f 12/23/111 93/24/111 13/23/111
f 86/10/138 38/12/138 94/24/138
f 94/24/139 55/25/139 86/10/139
f 60/15/137 86/10/137 57/30/137
f 23/23/135 22/23/135 91/24/135
f 88/24/136 91/24/136 22/23/136
f 88/24/143 87/24/143 66/25/143
f 65/25/144 66/25/144 87/24/144
f 37/31/142 94/24/142 38/12/142
f 57/30/140 86/10/140 55/25/140
f 39/23/141 94/24/141 37/31/141
f 56/25/128 94/24/128 58/25/128
f 94/24/129 39/23/129 92/24/129
f 58/25/127 94/24/127 59/25/127
f 55/25/125 94/24/125 56/25/125
f 92/24/126 59/25/126 94/24/126
f 53/25/133 51/25/133 91/24/133
f 22/23/134 17/23/134 88/24/134
f 74/25/132 53/25/132 88/24/132
f 36/23/130 92/24/130 39/23/130
f 91/24/131 88/24/131 53/25/131
####################################
