####################################
# netfabb Wavefront export         #
####################################
mtllib Snake_Body1.mtl
v 24.82355 9.89492 6.19550
v 25.14359 9.89492 6.20429
v 24.55621 9.89492 6.20459
v 24.85427 9.89492 6.19444
v 25.68186 9.89492 7.01579
v 25.66380 9.89492 7.03789
v 25.17427 9.89492 6.20536
v 25.20499 9.89492 6.21415
v 25.49431 9.89492 6.29574
v 25.66537 9.89492 6.48613
v 24.53384 9.89492 7.43804
v 25.08816 9.89492 7.44347
v 24.82355 9.89492 7.45617
v 25.49431 9.89492 7.24286
v 25.20499 9.89492 7.41905
v 25.68666 9.89492 6.53486
v 25.71622 9.89492 6.79659
v 25.68509 9.89492 6.99446
v 24.42054 14.83492 7.36101
v 24.65778 14.83488 6.82623
v 24.30197 14.83492 7.28644
v 24.01775 14.83492 6.79650
v 24.02471 14.83492 6.84523
v 25.68365 9.89492 6.50665
v 23.99489 9.89492 6.76838
v 24.02446 9.89492 6.50665
v 24.24451 9.89492 6.28695
v 24.53384 9.89492 6.20536
v 25.14359 9.89492 7.44000
v 25.17427 9.89492 7.43804
v 24.19553 9.89492 6.31627
v 24.21379 9.89492 6.29574
v 24.21379 9.89492 7.24286
v 24.19574 9.89492 7.22076
v 24.02664 9.89492 7.01579
v 23.99511 9.89492 6.81792
v 23.99187 9.89492 6.79659
v 24.85427 9.89492 7.45813
v 24.24451 9.89492 7.26185
v 24.61258 14.83492 7.44272
v 24.54348 14.83492 7.43831
v 24.93616 14.83493 7.45289
v 24.93716 14.83493 6.19727
v 24.40078 14.83492 6.24689
v 25.40620 14.83493 6.27563
v 25.09560 14.83493 6.20293
v 25.47530 14.83493 6.29572
v 24.85409 14.83492 6.19430
v 24.78499 14.83492 6.19677
v 25.16469 14.83493 6.20539
v 24.47438 14.83492 6.22549
v 25.47530 14.83493 7.24299
v 25.51619 14.83493 7.19241
v 25.23379 14.83493 7.39486
v 25.65913 14.83493 7.01559
v 25.66609 14.83493 6.96685
v 24.54348 14.83492 6.20539
v 25.16469 14.83493 7.43831
v 24.92318 14.83493 7.45371
v 24.85409 14.83492 7.45812
v 25.69043 14.83493 6.79650
v 24.23287 14.83492 7.24299
v 24.08994 14.83492 7.06617
v 24.04905 14.83492 7.01559
v 24.04054 14.83492 6.57101
v 25.68390 14.83493 6.73198
v 25.66111 14.83493 6.50649
v 25.61977 14.83493 6.45961
v 24.04707 14.83492 6.50649
v 24.19154 14.83492 6.34261
v 24.23287 14.83492 6.29572
v 25.47515 14.28863 6.29589
v 25.47514 12.20725 6.29589
v 25.47514 10.44996 6.29590
v 25.16462 12.20725 6.20555
v 25.16462 14.28863 6.20555
v 24.85410 12.20725 6.19434
v 24.85410 10.44996 6.19434
v 24.54358 12.20725 6.20555
v 24.54358 14.28863 6.20555
v 24.85410 14.28863 6.19434
v 25.16462 10.44996 6.20556
v 24.22294 10.15829 6.29590
v 24.53852 10.15829 6.20556
v 24.23306 14.28863 6.29589
v 24.23306 12.20725 6.29589
v 24.23306 10.44996 6.29590
v 24.54358 10.44996 6.20556
v 24.85410 10.15829 6.19434
v 25.16968 10.15829 6.20556
v 25.48526 10.15829 6.29590
v 24.01786 10.44996 6.79643
v 24.04905 10.44996 7.01558
v 24.04905 12.20725 7.01559
v 24.04905 14.28863 7.01559
v 24.01786 14.28863 6.79643
v 24.01786 12.20725 6.79643
v 24.53852 10.15829 7.43821
v 24.22294 10.15829 7.24284
v 24.03718 10.15829 7.01558
v 24.23306 10.44996 7.24284
v 24.85410 12.20725 7.45796
v 25.16462 14.28863 7.43821
v 24.85410 14.28863 7.45796
v 25.16462 12.20725 7.43821
v 24.85410 10.44996 7.45796
v 25.16462 10.44996 7.43821
v 25.16968 10.15829 7.43821
v 24.85410 10.15829 7.45796
v 25.48526 10.15829 7.24284
v 25.47514 10.44996 7.24284
v 24.04700 14.28863 6.50660
v 24.04700 12.20725 6.50660
v 24.04700 10.44996 6.50660
v 25.47515 14.28863 7.24284
v 25.65915 12.20725 7.01559
v 25.65916 14.28863 7.01559
v 25.47514 12.20725 7.24284
v 25.65915 10.44996 7.01558
v 24.54358 14.28863 7.43821
v 24.23306 14.28863 7.24284
v 24.54358 12.20725 7.43821
v 24.54358 10.44996 7.43821
v 24.23306 12.20725 7.24284
v 25.66120 14.28863 6.50660
v 25.66120 12.20725 6.50660
v 24.03513 10.15829 6.50660
v 25.66120 10.44996 6.50660
v 25.69034 10.44996 6.79643
v 25.70397 10.15829 6.79643
v 25.67102 10.15829 7.01558
v 25.69035 14.28863 6.79643
v 24.00423 10.15829 6.79643
v 25.67307 10.15829 6.50660
v 25.69034 12.20725 6.79643
vn 0.000 1.000 0.000
vn 0.000 1.000 0.000
vn 0.000 1.000 0.000
vn 0.000 1.000 0.000
vn 0.000 1.000 0.000
vn 0.000 1.000 0.000
vn 0.000 1.000 0.000
vn 0.000 1.000 0.000
vn 0.000 1.000 0.000
vn 0.000 1.000 0.000
vn 0.000 1.000 0.000
vn 0.000 1.000 0.000
vn 0.000 1.000 0.000
vn 0.000 1.000 0.000
vn 0.000 1.000 0.000
vn 0.000 1.000 0.000
vn 0.000 1.000 0.000
vn 0.000 1.000 0.000
vn 0.000 1.000 0.000
vn 0.000 1.000 0.000
vn 0.000 1.000 0.000
vn 0.000 1.000 0.000
vn 0.000 1.000 0.000
vn 0.000 1.000 0.000
vn 0.000 1.000 0.000
vn 0.000 1.000 0.000
vn 0.000 1.000 0.000
vn 0.000 1.000 0.000
vn 0.000 1.000 0.000
vn 0.000 1.000 0.000
vn 0.000 1.000 0.000
vn 0.000 1.000 0.000
vn 0.000 1.000 0.000
vn 0.000 1.000 0.000
vn 0.000 1.000 0.000
vn 0.000 1.000 0.000
vn 0.000 -1.000 0.000
vn 0.000 -1.000 0.000
vn 0.000 -1.000 0.000
vn 0.000 -1.000 0.000
vn 0.000 -1.000 0.000
vn 0.000 -1.000 0.000
vn 0.000 -1.000 0.000
vn 0.000 -1.000 0.000
vn 0.000 -1.000 0.000
vn 0.000 -1.000 0.000
vn 0.000 -1.000 0.000
vn 0.000 -1.000 0.000
vn 0.000 -1.000 0.000
vn 0.000 -1.000 0.000
vn 0.000 -1.000 0.000
vn 0.000 -1.000 0.000
vn 0.000 -1.000 0.000
vn 0.000 -1.000 0.000
vn 0.000 -1.000 0.000
vn 0.000 -1.000 0.000
vn 0.000 -1.000 0.000
vn 0.000 -1.000 0.000
vn 0.000 -1.000 0.000
vn 0.000 -1.000 0.000
vn 0.000 -1.000 0.000
vn 0.000 -1.000 0.000
vn 0.000 -1.000 0.000
vn 0.000 -1.000 0.000
vn 0.000 -1.000 0.000
vn 0.000 -1.000 0.000
vn 0.000 -1.000 0.000
vn 0.000 -1.000 0.000
vn 0.034 0.000 -0.999
vn 0.036 0.001 -0.999
vn 0.035 0.001 -0.999
vn 0.271 0.010 -0.962
vn 0.275 0.006 -0.961
vn 0.275 0.006 -0.961
vn -0.036 0.000 -0.999
vn -0.036 0.000 -0.999
vn -0.035 0.001 -0.999
vn -0.034 0.001 -0.999
vn -0.034 0.001 -0.999
vn 0.036 0.001 -0.999
vn 0.036 0.000 -0.999
vn 0.036 0.000 -0.999
vn 0.036 0.000 -0.999
vn 0.036 0.000 -0.999
vn 0.036 0.000 -0.999
vn 0.036 0.000 -0.999
vn 0.036 0.000 -0.999
vn 0.036 0.000 -0.999
vn 0.036 0.000 -0.999
vn 0.279 0.010 -0.960
vn 0.275 0.005 -0.961
vn -0.036 0.001 -0.999
vn -0.271 0.006 -0.962
vn -0.275 0.010 -0.961
vn -0.275 0.010 -0.961
vn -0.275 0.010 -0.961
vn 0.279 0.000 -0.960
vn 0.279 0.000 -0.960
vn 0.279 0.000 -0.960
vn 0.279 0.000 -0.960
vn 0.279 0.000 -0.960
vn 0.279 0.000 -0.960
vn 0.279 0.000 -0.960
vn -0.036 0.000 -0.999
vn -0.036 0.000 -0.999
vn -0.036 0.000 -0.999
vn -0.036 0.000 -0.999
vn -0.036 0.000 -0.999
vn -0.036 0.000 -0.999
vn -0.036 0.000 -0.999
vn -0.279 0.005 -0.960
vn -0.279 0.000 -0.960
vn -0.279 0.000 -0.960
vn -0.279 0.000 -0.960
vn -0.279 0.000 -0.960
vn -0.279 0.000 -0.960
vn -0.279 0.000 -0.960
vn -0.279 0.000 -0.960
vn -0.279 0.000 -0.960
vn 0.744 0.026 -0.668
vn 0.746 0.030 -0.665
vn 0.747 0.030 -0.665
vn 0.746 0.030 -0.665
vn 0.993 0.046 -0.112
vn 0.994 0.040 -0.106
vn 0.994 0.040 -0.106
vn 0.994 0.040 -0.106
vn 0.749 0.026 -0.662
vn 0.063 0.001 0.998
vn 0.063 0.001 0.998
vn -0.746 0.026 -0.665
vn -0.747 0.026 -0.665
vn -0.746 0.026 -0.665
vn -0.743 0.030 -0.668
vn 0.987 0.046 0.155
vn 0.988 0.042 0.149
vn 0.988 0.041 0.149
vn 0.994 0.046 -0.100
vn 0.750 0.000 -0.662
vn 0.750 0.000 -0.661
vn 0.750 0.000 -0.662
vn 0.750 0.000 -0.662
vn 0.750 0.000 -0.662
vn 0.750 0.000 -0.662
vn 0.750 0.000 -0.661
vn -0.993 0.040 -0.112
vn -0.993 0.046 -0.106
vn -0.993 0.047 -0.106
vn -0.749 0.030 -0.662
vn 0.770 0.026 0.637
vn 0.774 0.032 0.633
vn 0.774 0.032 0.633
vn 0.989 0.046 0.141
vn 0.988 0.040 0.149
vn 0.995 0.000 -0.101
vn 0.995 0.000 -0.101
vn 0.995 0.000 -0.100
vn 0.995 0.000 -0.100
vn 0.995 0.000 -0.100
vn 0.995 0.000 -0.100
vn 0.995 0.000 -0.100
vn -0.988 0.046 0.150
vn -0.988 0.046 0.148
vn -0.987 0.040 0.157
vn -0.993 0.046 -0.106
vn -0.994 0.040 -0.100
vn -0.750 0.000 -0.661
vn -0.750 0.000 -0.662
vn -0.750 0.000 -0.662
vn -0.750 0.000 -0.662
vn -0.750 0.000 -0.662
vn -0.750 0.000 -0.661
vn -0.750 0.000 -0.662
vn 0.520 0.018 0.854
vn 0.526 0.009 0.851
vn 0.526 0.009 0.850
vn 0.777 0.027 0.629
vn 0.774 0.031 0.633
vn 0.990 0.000 0.141
vn 0.990 0.000 0.141
vn 0.990 0.000 0.141
vn 0.990 0.000 0.141
vn 0.990 0.000 0.141
vn 0.990 0.000 0.141
vn 0.990 0.000 0.141
vn -0.771 0.031 0.636
vn -0.774 0.027 0.633
vn -0.774 0.027 0.633
vn -0.774 0.027 0.633
vn -0.989 0.040 0.141
vn -0.988 0.046 0.148
vn -0.995 0.000 -0.100
vn -0.995 0.000 -0.100
vn -0.995 0.000 -0.100
vn -0.995 0.000 -0.100
vn -0.995 0.000 -0.100
vn -0.995 0.000 -0.101
vn -0.995 0.000 -0.101
vn 0.062 0.001 0.998
vn 0.064 0.000 0.998
vn 0.532 0.018 0.846
vn 0.526 0.009 0.850
vn 0.777 0.000 0.629
vn 0.777 0.000 0.629
vn 0.777 0.000 0.629
vn 0.777 0.000 0.629
vn 0.777 0.000 0.629
vn 0.778 0.000 0.629
vn 0.778 0.000 0.629
vn -0.526 0.018 0.850
vn -0.526 0.018 0.850
vn -0.526 0.018 0.850
vn -0.520 0.009 0.854
vn -0.777 0.032 0.629
vn -0.990 0.000 0.141
vn -0.990 0.000 0.141
vn -0.990 0.000 0.141
vn -0.990 0.000 0.141
vn -0.990 0.000 0.141
vn -0.990 0.000 0.141
vn -0.990 0.000 0.141
vn 0.064 0.000 0.998
vn 0.063 0.000 0.998
vn 0.064 0.000 0.998
vn 0.063 0.000 0.998
vn 0.063 0.000 0.998
vn 0.063 0.000 0.998
vn 0.064 0.000 0.998
vn 0.063 0.000 0.998
vn 0.063 0.000 0.998
vn 0.062 0.001 0.998
vn -0.062 0.001 0.998
vn -0.062 0.000 0.998
vn -0.063 -0.001 0.998
vn -0.062 0.000 0.998
vn 0.532 0.000 0.847
vn 0.533 0.000 0.846
vn 0.533 0.000 0.846
vn 0.533 0.000 0.846
vn 0.533 0.000 0.846
vn 0.533 0.000 0.846
vn 0.532 0.000 0.847
vn -0.533 0.009 0.846
vn -0.777 0.000 0.629
vn -0.777 0.000 0.629
vn -0.777 0.000 0.629
vn -0.777 0.000 0.629
vn -0.778 0.000 0.629
vn -0.778 0.000 0.629
vn -0.777 0.000 0.629
vn -0.063 0.001 0.998
vn -0.532 0.000 0.847
vn -0.533 0.000 0.846
vn -0.532 0.000 0.847
vn -0.532 0.000 0.847
vn -0.533 0.000 0.846
vn -0.533 0.000 0.846
vn -0.533 0.000 0.846
vn -0.533 0.000 0.846
vn -0.063 0.000 0.998
vn -0.063 0.000 0.998
vn -0.063 0.000 0.998
vn -0.064 0.000 0.998
vn -0.063 0.000 0.998
vn -0.063 0.000 0.998
vn -0.064 0.000 0.998
vt 0.52941 0.02268 0.00000
vt 0.52941 0.00000 0.00000
vt 0.52592 0.02268 0.00000
vt 0.51373 0.00000 0.00000
vt 0.50196 0.00000 0.00000
vt 0.50458 0.02268 0.00000
vt 0.51373 0.02268 0.00000
vt 0.52789 0.00000 0.00000
vt 0.50196 0.02268 0.00000
vt 0.51722 0.02268 0.00000
vt 0.52093 0.02268 0.00000
vt 0.50311 0.00000 0.00000
vt 0.51291 0.00000 0.00000
vt 0.51258 0.00000 0.00000
vt 0.51525 0.00000 0.00000
vt 0.51111 0.02268 0.00000
vt 0.50511 0.02268 0.00000
vt 0.53725 0.00000 0.00000
vt 0.53725 0.02268 0.00000
vt 0.53116 0.02268 0.00000
vt 0.51993 0.02268 0.00000
vt 0.53551 0.02268 0.00000
vt 0.54079 0.00000 0.00000
vt 0.53649 0.00000 0.00000
vt 0.53017 0.00000 0.00000
vt 0.51055 0.00000 0.00000
usemtl material_1
f 1//46 2//46 3//46
f 2//47 1//47 4//47
f 3//44 5//44 6//44
f 3//45 7//45 8//45
f 3//50 8//50 9//50
f 3//51 9//51 10//51
f 7//48 3//48 2//48
f 11//49 12//49 13//49
f 3//43 14//43 15//43
f 3//37 16//37 17//37
f 3//38 17//38 18//38
f 19//35 20//35 21//35
f 22//36 23//36 20//36
f 3//41 18//41 5//41
f 3//42 6//42 14//42
f 3//39 10//39 24//39
f 3//40 24//40 16//40
f 25//63 26//63 3//63
f 27//64 28//64 3//64
f 3//61 29//61 12//61
f 3//62 15//62 30//62
f 31//67 32//67 3//67
f 32//68 27//68 3//68
f 3//65 30//65 29//65
f 26//66 31//66 3//66
f 33//60 34//60 3//60
f 34//54 35//54 3//54
f 36//55 37//55 3//55
f 38//52 13//52 12//52
f 35//53 36//53 3//53
f 11//58 39//58 3//58
f 39//59 33//59 3//59
f 12//56 11//56 3//56
f 37//57 25//57 3//57
f 40//12 20//12 41//12
f 42//13 20//13 40//13
f 20//10 43//10 44//10
f 41//11 20//11 19//11
f 43//16 45//16 46//16
f 43//17 47//17 45//17
f 43//14 48//14 49//14
f 46//15 45//15 50//15
f 44//9 43//9 51//9
f 20//3 52//3 53//3
f 20//4 54//4 52//4
f 20//1 55//1 56//1
f 20//2 53//2 55//2
f 49//7 57//7 43//7
f 51//8 43//8 57//8
f 20//5 58//5 54//5
f 20//6 42//6 58//6
f 40//29 59//29 42//29
f 40//30 60//30 59//30
f 20//27 44//27 22//27
f 56//28 61//28 20//28
f 62//33 20//33 63//33
f 21//34 20//34 62//34
f 64//31 20//31 23//31
f 63//32 20//32 64//32
f 22//26 44//26 65//26
f 43//20 66//20 67//20
f 43//21 61//21 66//21
f 43//18 68//18 47//18
f 43//19 67//19 68//19
f 69//24 44//24 70//24
f 65//25 44//25 69//25
f 43//22 20//22 61//22
f 70//23 44//23 71//23
usemtl material_2
f 47/1/103 72/2/103 45/3/103
f 73/2/102 74/2/102 75/4/102
f 75/4/101 76/4/101 73/2/101
f 77/5/106 78/5/106 79/4/106
f 80/4/105 49/6/105 81/5/105
f 80/4/104 57/7/104 49/6/104
f 82/4/97 75/4/97 74/2/97
f 32/2/96 83/2/96 27/8/96
f 84/4/95 27/8/95 83/2/95
f 72/2/100 73/2/100 76/4/100
f 76/4/99 45/3/99 72/2/99
f 76/4/98 50/7/98 45/3/98
f 48/9/107 81/5/107 49/6/107
f 85/2/116 51/10/116 80/4/116
f 85/2/115 44/11/115 51/10/115
f 85/2/114 71/1/114 44/11/114
f 86/2/119 85/2/119 79/4/119
f 87/2/118 86/2/118 88/4/118
f 79/4/117 88/4/117 86/2/117
f 79/4/110 80/4/110 77/5/110
f 88/4/109 79/4/109 78/5/109
f 81/5/108 77/5/108 80/4/108
f 80/4/113 79/4/113 85/2/113
f 57/7/112 80/4/112 51/10/112
f 84/4/111 87/2/111 88/4/111
f 83/2/94 87/2/94 84/4/94
f 4/5/77 1/12/77 84/4/77
f 78/5/76 89/5/76 84/4/76
f 89/5/75 4/5/75 84/4/75
f 82/4/80 90/4/80 89/5/80
f 1/12/79 3/13/79 84/4/79
f 28/4/78 84/4/78 3/13/78
f 2/14/71 90/4/71 7/4/71
f 90/4/70 2/14/70 89/5/70
f 4/5/69 89/5/69 2/14/69
f 91/2/74 8/15/74 90/4/74
f 8/15/73 7/4/73 90/4/73
f 8/15/72 91/2/72 9/2/72
f 78/5/81 77/5/81 82/4/81
f 82/4/90 74/2/90 91/2/90
f 50/7/89 76/4/89 46/16/89
f 89/5/88 78/5/88 82/4/88
f 84/4/93 28/4/93 27/8/93
f 78/5/92 84/4/92 88/4/92
f 82/4/91 91/2/91 90/4/91
f 81/5/84 43/17/84 46/16/84
f 81/5/83 48/9/83 43/17/83
f 75/4/82 82/4/82 77/5/82
f 77/5/87 81/5/87 75/4/87
f 76/4/86 75/4/86 81/5/86
f 81/5/85 46/16/85 76/4/85
usemtl material_3
f 92/18/218 93/18/218 94/18/218
f 64/19/217 23/19/217 95/18/217
f 96/18/220 95/18/220 23/19/220
f 95/18/219 96/18/219 97/18/219
f 94/18/216 97/18/216 92/18/216
f 98/4/213 39/8/213 11/4/213
f 98/4/212 99/2/212 39/8/212
f 97/18/215 94/18/215 95/18/215
f 100/18/214 101/2/214 93/18/214
f 102/5/227 103/4/227 104/5/227
f 103/4/226 102/5/226 105/4/226
f 104/5/229 103/4/229 42/17/229
f 104/5/228 42/17/228 59/6/228
f 106/5/225 105/4/225 102/5/225
f 104/5/222 59/6/222 60/9/222
f 23/19/221 22/19/221 96/18/221
f 58/7/224 42/17/224 103/4/224
f 105/4/223 106/5/223 107/4/223
f 29/14/200 30/4/200 108/4/200
f 108/4/199 109/5/199 29/14/199
f 110/2/202 107/4/202 108/4/202
f 110/2/201 111/2/201 107/4/201
f 22/19/198 65/19/198 96/18/198
f 112/18/195 96/18/195 65/19/195
f 97/18/194 113/18/194 114/18/194
f 65/19/197 69/19/197 112/18/197
f 114/18/196 92/18/196 97/18/196
f 53/20/209 115/2/209 55/19/209
f 52/1/208 115/2/208 53/20/208
f 33/2/211 39/8/211 99/2/211
f 99/2/210 98/4/210 101/2/210
f 116/18/207 117/18/207 118/2/207
f 117/18/204 55/19/204 115/2/204
f 118/2/203 111/2/203 116/18/203
f 115/2/206 118/2/206 117/18/206
f 119/18/205 116/18/205 111/2/205
f 109/5/230 107/4/230 106/5/230
f 41/7/255 19/21/255 120/4/255
f 121/2/254 21/3/254 62/1/254
f 122/4/257 101/2/257 123/4/257
f 120/4/256 124/2/256 122/4/256
f 121/2/253 120/4/253 19/21/253
f 93/18/250 101/2/250 124/2/250
f 62/1/249 63/22/249 121/2/249
f 121/2/252 19/21/252 21/3/252
f 98/4/251 106/5/251 123/4/251
f 123/4/264 102/5/264 122/4/264
f 60/9/263 40/16/263 104/5/263
f 120/4/266 40/16/266 41/7/266
f 102/5/265 123/4/265 106/5/265
f 104/5/262 122/4/262 102/5/262
f 101/2/259 122/4/259 124/2/259
f 124/2/258 120/4/258 121/2/258
f 120/4/261 104/5/261 40/16/261
f 122/4/260 104/5/260 120/4/260
f 118/2/237 107/4/237 111/2/237
f 103/4/236 54/10/236 58/7/236
f 105/4/239 115/2/239 103/4/239
f 103/4/238 115/2/238 54/10/238
f 11/4/235 13/12/235 98/4/235
f 109/5/232 98/4/232 38/5/232
f 107/4/231 109/5/231 108/4/231
f 38/5/234 98/4/234 13/12/234
f 106/5/233 98/4/233 109/5/233
f 94/18/246 124/2/246 121/2/246
f 124/2/245 94/18/245 93/18/245
f 63/22/248 64/19/248 95/18/248
f 95/18/247 121/2/247 63/22/247
f 121/2/244 95/18/244 94/18/244
f 107/4/241 118/2/241 105/4/241
f 115/2/240 105/4/240 118/2/240
f 98/4/243 123/4/243 101/2/243
f 52/1/242 54/10/242 115/2/242
f 96/18/193 112/18/193 113/18/193
f 125/18/144 126/18/144 72/2/144
f 72/2/143 47/1/143 125/18/143
f 26/18/146 25/23/146 127/18/146
f 67/19/145 125/18/145 68/22/145
f 73/2/142 72/2/142 126/18/142
f 126/18/139 128/18/139 73/2/139
f 128/18/138 129/18/138 130/18/138
f 74/2/141 73/2/141 128/18/141
f 68/22/140 125/18/140 47/1/140
f 130/18/153 129/18/153 119/18/153
f 5/18/152 131/18/152 6/24/152
f 66/19/155 132/18/155 67/19/155
f 130/18/154 119/18/154 131/18/154
f 110/2/151 6/24/151 131/18/151
f 133/18/148 127/18/148 37/23/148
f 25/23/147 37/23/147 127/18/147
f 6/24/150 110/2/150 14/2/150
f 127/18/149 114/18/149 87/2/149
f 134/18/126 128/18/126 130/18/126
f 24/18/125 134/18/125 16/18/125
f 91/2/128 74/2/128 128/18/128
f 130/18/127 16/18/127 134/18/127
f 16/18/124 130/18/124 17/23/124
f 91/2/121 128/18/121 134/18/121
f 9/2/120 91/2/120 10/24/120
f 134/18/123 24/18/123 91/2/123
f 10/24/122 91/2/122 24/18/122
f 17/23/135 130/18/135 18/18/135
f 31/25/134 26/18/134 127/18/134
f 131/18/137 5/18/137 130/18/137
f 18/18/136 130/18/136 5/18/136
f 127/18/133 83/2/133 31/25/133
f 29/14/130 109/5/130 12/26/130
f 38/5/129 12/26/129 109/5/129
f 32/2/132 31/25/132 83/2/132
f 83/2/131 127/18/131 87/2/131
f 61/19/156 132/18/156 66/19/156
f 116/18/181 119/18/181 135/18/181
f 129/18/180 135/18/180 119/18/180
f 135/18/183 132/18/183 116/18/183
f 132/18/182 61/19/182 117/18/182
f 55/19/179 117/18/179 56/19/179
f 110/2/176 108/4/176 15/15/176
f 15/15/175 108/4/175 30/4/175
f 119/18/178 110/2/178 131/18/178
f 119/18/177 111/2/177 110/2/177
f 100/18/190 93/18/190 92/18/190
f 99/2/189 100/18/189 33/2/189
f 113/18/192 97/18/192 96/18/192
f 100/18/191 92/18/191 133/18/191
f 34/25/188 33/2/188 100/18/188
f 56/19/185 117/18/185 61/19/185
f 117/18/184 116/18/184 132/18/184
f 100/18/187 99/2/187 101/2/187
f 35/18/186 34/25/186 100/18/186
f 100/18/163 133/18/163 36/23/163
f 37/23/162 36/23/162 133/18/162
f 127/18/165 133/18/165 92/18/165
f 36/23/164 35/18/164 100/18/164
f 128/18/161 126/18/161 129/18/161
f 135/18/158 129/18/158 126/18/158
f 125/18/157 67/19/157 132/18/157
f 126/18/160 125/18/160 135/18/160
f 132/18/159 135/18/159 125/18/159
f 70/20/172 71/1/172 85/2/172
f 87/2/171 114/18/171 113/18/171
f 15/15/174 14/2/174 110/2/174
f 113/18/173 86/2/173 87/2/173
f 85/2/170 112/18/170 70/20/170
f 69/19/167 70/20/167 112/18/167
f 127/18/166 92/18/166 114/18/166
f 112/18/169 85/2/169 86/2/169
f 86/2/168 113/18/168 112/18/168
####################################
