####################################
# netfabb Wavefront export         #
####################################
mtllib Snake_Body5.mtl
v 24.94657 35.20847 6.29595
v 25.21481 35.20847 6.21781
v 25.29511 35.20847 6.20414
v 24.92125 35.20847 6.32461
v 25.25706 35.20847 6.20550
v 25.83599 35.20847 6.20399
v 25.52530 35.20847 6.19587
v 24.75653 35.20847 6.54602
v 24.76048 35.20847 6.50657
v 25.29930 35.20847 7.44094
v 25.60979 35.20847 7.45519
v 25.56754 35.20847 7.45785
v 25.56754 35.20847 6.19435
v 25.84729 35.20847 6.20439
v 25.57132 35.20853 6.82619
v 26.37687 35.20847 6.98574
v 26.37263 35.20847 7.01554
v 26.21378 35.20847 7.21185
v 26.39961 35.20847 6.82623
v 26.40385 35.20847 6.79649
v 26.18876 35.20847 7.24277
v 25.87803 35.20847 7.43828
v 25.84391 35.20847 7.44043
v 25.29841 35.20847 7.44089
v 25.92031 35.20847 7.41167
v 26.37486 35.20847 6.50657
v 26.39990 35.20847 6.75704
v 24.76246 35.20847 7.01554
v 24.73569 35.20847 6.82623
v 24.78751 35.20847 7.04646
v 25.25706 35.20847 7.43828
v 24.98882 35.20847 7.26937
v 24.94657 35.20847 7.24277
v 24.73149 35.20847 6.79649
v 26.34953 35.20847 6.47791
v 25.87828 35.20847 6.20550
v 26.14651 35.20847 6.28364
v 26.18876 35.20847 6.29595
v 25.27121 40.06856 7.43917
v 25.56765 40.06856 7.45795
v 25.58180 40.06856 7.45705
v 25.71938 40.06856 6.19976
v 26.37482 40.06856 6.50670
v 26.36634 40.06856 6.49710
v 26.40252 40.06856 6.78323
v 26.18863 40.06856 6.29587
v 26.17449 40.06856 6.29175
v 26.40384 40.06856 6.79643
v 25.44132 40.06853 6.82615
v 26.37264 40.06856 7.01561
v 26.37406 40.06856 7.00562
v 26.19701 40.06856 7.23258
v 26.39959 40.06856 6.82623
v 25.55350 40.06856 6.19483
v 25.25706 40.06856 6.20545
v 25.24292 40.06856 6.20957
v 24.73570 40.06856 6.82623
v 24.76266 40.06856 7.01561
v 25.17618 40.06856 6.22901
v 25.86409 40.06856 6.20494
v 25.87824 40.06856 6.20545
v 25.56765 40.06856 6.19432
v 26.18863 40.06856 7.24294
v 24.73288 40.06856 6.80642
v 24.73146 40.06856 6.79643
v 24.75915 40.06856 6.51990
v 24.76047 40.06856 6.50670
v 25.71751 40.06856 7.44845
v 25.25706 40.06856 7.43827
v 25.18869 40.06856 7.39525
v 25.87824 40.06856 7.43827
v 24.77104 40.06856 7.02597
v 25.89238 40.06856 7.42937
v 24.94667 40.06856 7.24294
v 24.93818 40.06856 6.30547
v 24.94667 40.06856 6.29587
v 24.96081 40.06856 7.25184
v 25.56762 39.82597 6.19433
v 25.25710 39.82597 6.20555
v 24.94658 39.82597 6.29589
v 25.87817 39.82597 6.20555
v 26.18869 39.82597 6.29589
v 25.56762 39.82597 7.45797
v 26.18869 39.82597 7.24285
v 25.87814 39.82597 7.43821
v 24.73138 39.82597 6.79642
v 24.76256 39.82597 7.01560
v 24.94657 39.82597 7.24285
v 25.25712 39.82597 7.43821
v 24.76052 39.82597 6.50662
v 26.37474 39.82597 6.50662
v 26.37270 39.82597 7.01560
v 26.40388 39.82597 6.79642
vn 0.000 1.000 0.000
vn 0.000 1.000 0.000
vn 0.000 1.000 0.000
vn 0.000 1.000 0.000
vn 0.000 1.000 0.000
vn 0.000 1.000 0.000
vn 0.000 1.000 0.000
vn 0.000 1.000 0.000
vn 0.000 1.000 0.000
vn 0.000 1.000 0.000
vn 0.000 1.000 0.000
vn 0.000 1.000 0.000
vn 0.000 1.000 0.000
vn 0.000 1.000 0.000
vn 0.000 1.000 0.000
vn 0.000 1.000 0.000
vn 0.000 1.000 0.000
vn 0.000 1.000 0.000
vn 0.000 1.000 0.000
vn 0.000 1.000 0.000
vn 0.000 1.000 0.000
vn 0.000 1.000 0.000
vn 0.000 1.000 0.000
vn 0.000 1.000 0.000
vn 0.000 1.000 0.000
vn 0.000 1.000 0.000
vn 0.000 1.000 0.000
vn 0.000 1.000 0.000
vn 0.000 1.000 0.000
vn 0.000 1.000 0.000
vn 0.000 1.000 0.000
vn 0.000 1.000 0.000
vn 0.000 1.000 0.000
vn 0.000 1.000 0.000
vn 0.000 1.000 0.000
vn 0.000 1.000 0.000
vn 0.000 1.000 0.000
vn 0.000 1.000 0.000
vn 0.000 -1.000 0.000
vn 0.000 -1.000 0.000
vn 0.000 -1.000 0.000
vn 0.000 -1.000 0.000
vn 0.000 -1.000 0.000
vn 0.000 -1.000 0.000
vn 0.000 -1.000 0.000
vn 0.000 -1.000 0.000
vn 0.000 -1.000 0.000
vn 0.000 -1.000 0.000
vn 0.000 -1.000 0.000
vn 0.000 -1.000 0.000
vn 0.000 -1.000 0.000
vn 0.000 -1.000 0.000
vn 0.000 -1.000 0.000
vn 0.000 -1.000 0.000
vn 0.000 -1.000 0.000
vn 0.000 -1.000 0.000
vn 0.000 -1.000 0.000
vn 0.000 -1.000 0.000
vn 0.000 -1.000 0.000
vn 0.000 0.000 0.000
vn 0.000 -1.000 0.000
vn 0.000 -1.000 0.000
vn 0.000 -1.000 0.000
vn 0.000 -1.000 0.000
vn 0.000 -1.000 0.000
vn 0.000 -1.000 0.000
vn 0.000 -1.000 0.000
vn 0.000 -1.000 0.000
vn 0.000 -1.000 0.000
vn 0.000 -1.000 0.000
vn 0.000 -1.000 0.000
vn 0.000 -1.000 0.000
vn 0.000 -1.000 0.000
vn 0.000 -1.000 0.000
vn 0.000 -1.000 0.000
vn 0.036 0.000 -0.999
vn 0.036 0.000 -0.999
vn 0.036 0.000 -0.999
vn 0.036 0.000 -0.999
vn 0.036 0.000 -0.999
vn 0.036 0.000 -0.999
vn 0.036 0.000 -0.999
vn 0.036 0.000 -0.999
vn 0.280 0.000 -0.960
vn 0.280 0.000 -0.960
vn 0.279 0.000 -0.960
vn 0.280 0.000 -0.960
vn 0.279 0.000 -0.960
vn 0.280 0.000 -0.960
vn -0.036 0.000 -0.999
vn -0.036 0.000 -0.999
vn -0.036 0.000 -0.999
vn -0.036 0.000 -0.999
vn -0.036 0.000 -0.999
vn -0.036 0.000 -0.999
vn -0.036 0.000 -0.999
vn -0.279 0.000 -0.960
vn -0.280 0.000 -0.960
vn -0.280 0.000 -0.960
vn -0.280 0.000 -0.960
vn -0.279 0.000 -0.960
vn -0.280 0.000 -0.960
vn -0.280 0.000 -0.960
vn 0.749 0.000 -0.662
vn 0.750 0.000 -0.662
vn 0.750 0.000 -0.662
vn 0.750 0.000 -0.662
vn 0.750 0.000 -0.662
vn 0.749 0.000 -0.662
vn 0.995 0.000 -0.100
vn 0.995 0.000 -0.100
vn 0.995 0.000 -0.100
vn 0.995 0.000 -0.100
vn 0.995 0.000 -0.100
vn 0.995 0.000 -0.099
vn -0.750 0.000 -0.662
vn -0.750 0.000 -0.662
vn -0.750 0.000 -0.662
vn -0.749 0.000 -0.662
vn -0.749 0.000 -0.662
vn -0.750 0.000 -0.662
vn 0.990 0.000 0.141
vn 0.990 0.000 0.141
vn 0.990 0.000 0.141
vn 0.990 0.000 0.141
vn 0.990 0.000 0.141
vn 0.990 0.000 0.141
vn 0.990 0.000 0.141
vn 0.990 0.000 0.141
vn -0.995 0.000 -0.100
vn -0.995 0.000 -0.100
vn -0.995 0.000 -0.100
vn -0.995 0.000 -0.100
vn -0.995 0.000 -0.100
vn -0.995 0.000 -0.100
vn 0.777 0.000 0.629
vn 0.777 0.000 0.629
vn 0.777 0.000 0.629
vn 0.777 0.000 0.629
vn 0.777 0.000 0.629
vn 0.777 0.000 0.629
vn -0.990 0.000 0.141
vn -0.990 0.000 0.141
vn -0.990 0.000 0.141
vn -0.990 0.000 0.141
vn -0.990 0.000 0.140
vn -0.990 0.000 0.140
vn -0.990 0.000 0.141
vn 0.063 0.000 0.998
vn 0.063 0.000 0.998
vn 0.063 0.000 0.998
vn 0.063 0.000 0.998
vn 0.063 0.000 0.998
vn 0.063 0.000 0.998
vn 0.063 0.000 0.998
vn 0.063 0.000 0.998
vn 0.533 0.000 0.846
vn 0.533 0.000 0.846
vn 0.532 0.000 0.846
vn 0.533 0.000 0.846
vn 0.533 0.000 0.846
vn 0.532 0.000 0.846
vn -0.777 0.000 0.629
vn -0.777 0.000 0.629
vn -0.777 0.000 0.629
vn -0.777 0.000 0.630
vn -0.777 0.000 0.630
vn -0.777 0.000 0.629
vn -0.533 0.000 0.846
vn -0.533 0.000 0.846
vn -0.533 0.000 0.846
vn -0.532 0.000 0.846
vn -0.533 0.000 0.846
vn -0.532 0.000 0.846
vn -0.533 0.000 0.846
vn -0.063 0.000 0.998
vn -0.063 0.000 0.998
vn -0.063 0.000 0.998
vn -0.063 0.000 0.998
vn -0.063 0.000 0.998
vn -0.063 0.000 0.998
vn -0.063 0.000 0.998
vt 0.50196 0.90196 0.00000
vt 0.50196 0.69191 0.00000
vt 0.51373 0.90196 0.00000
vt 0.51373 0.69191 0.00000
vt 0.51228 0.69191 0.00000
vt 0.50356 0.69191 0.00000
vt 0.50196 0.90643 0.00000
vt 0.50250 0.90643 0.00000
vt 0.51373 0.90643 0.00000
vt 0.52941 0.90196 0.00000
vt 0.51444 0.90643 0.00000
vt 0.51586 0.69191 0.00000
vt 0.52941 0.69191 0.00000
vt 0.51781 0.90643 0.00000
vt 0.52941 0.90643 0.00000
vt 0.51319 0.90643 0.00000
vt 0.51255 0.69191 0.00000
vt 0.51212 0.69191 0.00000
vt 0.50771 0.90643 0.00000
vt 0.52728 0.69191 0.00000
vt 0.52870 0.90643 0.00000
vt 0.51243 0.69191 0.00000
vt 0.53725 0.69191 0.00000
vt 0.53725 0.90196 0.00000
vt 0.53725 0.90643 0.00000
vt 0.50764 0.90643 0.00000
vt 0.53690 0.90643 0.00000
vt 0.51216 0.69191 0.00000
vt 0.53619 0.69191 0.00000
vt 0.51718 0.90643 0.00000
vt 0.52977 0.90643 0.00000
vt 0.53048 0.69191 0.00000
usemtl material_1
f 1//50 2//50 3//50
f 4//51 1//51 3//51
f 2//48 5//48 3//48
f 6//49 3//49 7//49
f 8//52 9//52 3//52
f 10//55 11//55 12//55
f 6//56 7//56 13//56
f 9//53 4//53 3//53
f 3//54 6//54 14//54
f 15//41 16//41 17//41
f 15//42 17//42 18//42
f 19//39 15//39 20//39
f 15//40 19//40 16//40
f 15//43 18//43 21//43
f 15//46 22//46 23//46
f 15//47 23//47 24//47
f 15//44 21//44 25//44
f 15//45 25//45 22//45
f 14//57 26//57 27//57
f 14//69 20//69 15//69
f 28//70 29//70 15//70
f 3//67 14//67 15//67
f 15//68 29//68 3//68
f 30//71 28//71 15//71
f 31//74 32//74 15//74
f 24//75 31//75 15//75
f 33//72 30//72 15//72
f 32//73 33//73 15//73
f 10//60 24//60 23//60
f 34//61 8//61 3//61
f 14//58 35//58 26//58
f 14//59 27//59 20//59
f 29//62 34//62 3//62
f 14//65 36//65 37//65
f 14//66 38//66 35//66
f 11//63 10//63 23//63
f 14//64 37//64 38//64
f 39//38 40//38 41//38
f 42//12 43//12 44//12
f 42//13 45//13 43//13
f 42//10 46//10 47//10
f 42//11 44//11 46//11
f 42//14 48//14 45//14
f 49//17 50//17 51//17
f 49//18 52//18 50//18
f 42//15 49//15 48//15
f 49//16 51//16 53//16
f 54//3 55//3 42//3
f 56//4 42//4 55//4
f 53//1 48//1 49//1
f 57//2 58//2 49//2
f 59//5 42//5 56//5
f 60//8 47//8 61//8
f 42//9 47//9 60//9
f 49//6 42//6 59//6
f 42//7 62//7 54//7
f 49//19 63//19 52//19
f 64//31 59//31 65//31
f 57//32 59//32 64//32
f 66//29 59//29 67//29
f 65//30 59//30 66//30
f 49//33 59//33 57//33
f 68//36 49//36 39//36
f 39//37 41//37 68//37
f 69//34 49//34 70//34
f 39//35 49//35 69//35
f 49//22 68//22 71//22
f 72//23 49//23 58//23
f 49//20 73//20 63//20
f 49//21 71//21 73//21
f 74//24 49//24 72//24
f 75//27 59//27 76//27
f 67//28 59//28 75//28
f 77//25 49//25 74//25
f 70//26 49//26 77//26
usemtl material_2
f 78/1/94 13/2/94 79/3/94
f 5/4/95 79/3/95 3/5/95
f 7/6/96 3/5/96 79/3/96
f 13/2/93 7/6/93 79/3/93
f 62/7/90 78/1/90 54/8/90
f 79/3/91 55/9/91 54/8/91
f 79/3/92 54/8/92 78/1/92
f 80/10/101 56/11/101 79/3/101
f 5/4/102 2/12/102 80/10/102
f 1/13/103 80/10/103 2/12/103
f 80/10/100 59/14/100 56/11/100
f 79/3/97 5/4/97 80/10/97
f 55/9/98 79/3/98 56/11/98
f 80/10/99 76/15/99 59/14/99
f 61/9/80 81/3/80 60/16/80
f 14/17/81 6/18/81 78/1/81
f 36/4/82 14/17/82 78/1/82
f 81/3/79 36/4/79 78/1/79
f 78/1/76 62/7/76 42/19/76
f 78/1/77 42/19/77 60/16/77
f 78/1/78 60/16/78 81/3/78
f 38/13/87 37/20/87 81/3/87
f 82/10/88 38/13/88 81/3/88
f 36/4/89 81/3/89 37/20/89
f 81/3/86 47/21/86 82/10/86
f 13/2/83 78/1/83 6/18/83
f 46/15/84 82/10/84 47/21/84
f 81/3/85 61/9/85 47/21/85
usemtl material_3
f 12/2/156 11/6/156 83/1/156
f 63/15/157 73/11/157 84/10/157
f 85/3/154 11/6/154 23/22/154
f 85/3/155 83/1/155 11/6/155
f 85/3/158 73/11/158 71/9/158
f 22/4/161 25/12/161 85/3/161
f 84/10/162 85/3/162 25/12/162
f 85/3/159 84/10/159 73/11/159
f 84/10/160 25/12/160 21/13/160
f 85/3/153 23/22/153 22/4/153
f 34/23/146 29/23/146 86/24/146
f 29/23/147 28/23/147 87/24/147
f 57/25/144 64/25/144 87/24/144
f 58/25/145 57/25/145 87/24/145
f 87/24/148 86/24/148 29/23/148
f 83/1/151 68/26/151 41/8/151
f 83/1/152 85/3/152 68/26/152
f 71/9/149 68/26/149 85/3/149
f 83/1/150 41/8/150 40/7/150
f 87/24/163 88/10/163 72/27/163
f 40/7/176 39/16/176 83/1/176
f 89/3/177 39/16/177 69/9/177
f 89/3/174 88/10/174 32/20/174
f 33/13/175 32/20/175 88/10/175
f 89/3/178 83/1/178 39/16/178
f 83/1/181 89/3/181 10/18/181
f 83/1/182 10/18/182 12/2/182
f 31/4/179 24/28/179 89/3/179
f 10/18/180 89/3/180 24/28/180
f 89/3/173 32/20/173 31/4/173
f 28/23/166 30/29/166 87/24/166
f 30/29/167 33/13/167 88/10/167
f 74/15/164 72/27/164 88/10/164
f 72/27/165 58/25/165 87/24/165
f 88/10/168 87/24/168 30/29/168
f 88/10/171 70/30/171 77/21/171
f 88/10/172 89/3/172 70/30/172
f 69/9/169 70/30/169 89/3/169
f 88/10/170 77/21/170 74/15/170
f 86/24/143 87/24/143 64/25/143
f 80/10/116 90/24/116 75/31/116
f 67/25/117 75/31/117 90/24/117
f 27/23/114 91/24/114 20/23/114
f 26/23/115 91/24/115 27/23/115
f 75/31/118 76/15/118 80/10/118
f 90/24/121 80/10/121 4/32/121
f 92/24/122 17/23/122 93/24/122
f 1/13/119 4/32/119 80/10/119
f 4/32/120 9/23/120 90/24/120
f 91/24/113 43/25/113 93/24/113
f 43/25/106 91/24/106 44/27/106
f 82/10/107 46/15/107 91/24/107
f 35/29/104 82/10/104 26/23/104
f 44/27/105 91/24/105 46/15/105
f 91/24/108 26/23/108 82/10/108
f 93/24/111 20/23/111 91/24/111
f 48/25/112 93/24/112 45/25/112
f 38/13/109 82/10/109 35/29/109
f 45/25/110 93/24/110 43/25/110
f 53/25/123 92/24/123 48/25/123
f 52/31/136 84/10/136 50/25/136
f 63/15/137 84/10/137 52/31/137
f 9/23/134 8/23/134 90/24/134
f 8/23/135 34/23/135 86/24/135
f 92/24/138 50/25/138 84/10/138
f 17/23/141 92/24/141 18/32/141
f 64/25/142 65/25/142 86/24/142
f 84/10/139 21/13/139 92/24/139
f 18/32/140 92/24/140 21/13/140
f 86/24/133 90/24/133 8/23/133
f 93/24/126 48/25/126 92/24/126
f 16/23/127 93/24/127 17/23/127
f 51/25/124 92/24/124 53/25/124
f 50/25/125 92/24/125 51/25/125
f 19/23/128 93/24/128 16/23/128
f 65/25/131 66/25/131 86/24/131
f 66/25/132 67/25/132 90/24/132
f 20/23/129 93/24/129 19/23/129
f 90/24/130 86/24/130 66/25/130
####################################
