####################################
# netfabb Wavefront export         #
####################################
mtllib Snake_Body6.mtl
v 25.95745 45.58726 7.45797
v 25.97042 45.58726 7.45714
v 25.94449 45.58726 7.45722
v 26.10858 40.71722 6.19976
v 26.76403 40.71722 6.50670
v 26.79172 40.71722 6.78323
v 26.79304 40.71722 6.79643
v 25.76052 45.58719 6.82615
v 25.50344 45.58726 6.24707
v 25.12480 45.58726 6.82618
v 25.12060 45.58726 6.79680
v 25.12055 45.58726 6.79638
v 25.12191 45.58726 6.80596
v 25.83052 40.71719 6.82615
v 26.76184 40.71722 7.01561
v 26.58622 40.71722 7.23258
v 26.57783 40.71722 7.24294
v 25.12490 40.71722 6.82623
v 25.15186 40.71722 7.01561
v 25.94270 40.71722 6.19483
v 25.64626 40.71722 6.20545
v 26.57783 40.71722 6.29587
v 26.75554 40.71722 6.49710
v 25.34530 45.58726 6.29312
v 25.34809 45.58726 6.29231
v 25.33573 45.58726 6.29591
v 25.33538 45.58726 6.29632
v 25.34868 45.58726 6.29213
v 25.64688 45.58726 7.43820
v 25.64629 45.58726 7.43816
v 25.65985 45.58726 7.43902
v 26.03864 45.58726 7.45278
v 25.14846 45.58726 6.51923
v 25.14967 45.58726 6.50713
v 25.12171 45.58726 6.78484
v 25.14973 45.58726 6.50659
v 25.32760 45.58726 6.30511
v 25.15714 45.58726 6.49818
v 26.78880 40.71722 6.82623
v 26.76326 40.71722 7.00562
v 25.66041 40.71722 7.43917
v 25.64626 40.71722 7.43827
v 26.26744 40.71722 7.43827
v 26.10671 40.71722 7.44845
v 26.28158 40.71722 7.42937
v 25.97100 40.71722 7.45705
v 25.95685 40.71722 7.45795
v 25.12066 40.71722 6.79643
v 25.14835 40.71722 6.51990
v 25.56538 40.71722 6.22901
v 25.14967 40.71722 6.50670
v 25.32738 40.71722 6.30547
v 25.33587 40.71722 6.29587
v 25.35001 40.71722 7.25184
v 25.33587 40.71722 7.24294
v 25.16024 40.71722 7.02597
v 25.57789 40.71722 7.39525
v 25.63212 40.71722 6.20957
v 26.56369 40.71722 6.29175
v 25.12208 40.71722 6.80642
v 26.25329 40.71722 6.20495
v 26.26744 40.71722 6.20545
v 25.95685 40.71722 6.19432
v 25.33573 45.58726 7.24284
v 25.32839 45.58726 7.23378
v 25.33632 45.58726 7.24321
v 25.34929 45.58726 7.25137
v 25.15987 45.58726 7.02553
v 25.15184 45.58726 7.01562
v 25.15071 45.58726 7.00772
v 25.15219 45.58726 7.01605
v 25.64629 45.58726 6.20548
v 26.03965 45.58726 6.19731
v 25.65866 45.58726 6.20504
v 25.63332 45.58726 6.20925
v 25.65925 45.58726 6.20502
v 25.52321 45.58726 7.36074
v 25.94390 45.58726 6.19481
v 25.96983 45.58726 6.19481
v 26.58554 45.58726 7.23335
v 26.75420 45.58726 7.02511
v 26.57786 45.58726 7.24284
v 26.56550 45.58726 7.25062
v 26.75455 45.58726 7.02468
v 26.76318 45.58726 7.00648
v 26.78880 45.58726 6.82618
v 26.76189 45.58726 7.01562
v 26.25492 45.58726 7.43894
v 26.26059 45.58726 7.43858
v 25.15059 45.58726 7.00689
v 26.26730 45.58726 7.43816
v 26.28086 45.58726 7.42963
v 26.26789 45.58726 7.43778
v 26.76520 45.58726 6.51867
v 26.76515 45.58726 6.51812
v 26.79182 45.58726 6.78429
v 26.79304 45.58726 6.79638
v 26.76400 45.58726 6.50659
v 26.58564 45.58726 6.30471
v 26.58527 45.58726 6.30431
v 26.75623 45.58726 6.49778
v 25.63393 45.58726 7.43037
v 25.64344 45.58726 7.43636
v 26.79173 45.58726 6.80554
v 26.79286 45.58726 6.79763
v 26.79179 45.58726 6.80512
v 25.95686 45.58726 7.45801
v 25.95686 45.58726 6.19434
v 25.96320 45.58726 6.19457
v 25.96924 45.58726 6.19478
v 26.56490 45.58726 6.29214
v 26.28039 45.58726 6.20926
v 26.57786 45.58726 6.29591
v 26.27980 45.58726 6.20909
v 26.25447 45.58726 6.20502
v 26.26744 45.58726 6.20548
v 26.57786 43.25832 6.29588
v 26.42260 43.25832 6.25071
v 25.80157 43.25832 6.19994
v 25.48395 43.25832 6.25273
v 25.45058 43.25832 6.26245
v 25.33582 43.25832 6.29588
v 25.49102 43.25832 6.25067
v 25.64628 43.25832 6.20550
v 26.11213 43.25832 6.19989
v 26.10505 43.25832 6.19964
v 26.03270 43.25832 6.19705
v 25.79450 43.25832 6.20019
v 26.26740 43.25832 6.20550
v 26.41553 43.25832 6.24865
v 25.95684 43.25832 6.19433
v 26.67096 43.25832 6.40129
v 26.66672 43.25832 6.39649
v 25.23855 43.25832 6.40605
v 25.33158 43.25832 6.30068
v 26.77849 43.25832 6.65152
v 26.77783 43.25832 6.64492
v 25.13447 43.25832 6.65816
v 25.14904 43.25832 6.51326
v 26.77746 43.25832 6.90601
v 26.77817 43.25832 6.90102
v 26.66987 43.25832 7.12927
v 26.67406 43.25832 7.12409
v 25.24801 43.25832 7.13441
v 25.15600 43.25832 7.02078
v 25.12133 43.25832 6.80142
v 25.13692 43.25832 6.91101
v 25.12062 43.25832 6.79642
v 25.14970 43.25832 6.50666
v 25.15181 43.25832 7.01560
v 26.27446 43.25832 7.43379
v 26.26739 43.25832 7.43825
v 26.18703 43.25832 7.44334
v 25.61210 43.25832 7.41673
v 25.64629 43.25832 7.43825
v 25.34289 43.25832 7.24735
v 25.33582 43.25832 7.24290
v 26.76398 43.25832 6.50666
v 26.42974 43.25832 7.33611
v 26.57786 43.25832 7.24290
v 25.13833 43.25832 6.92092
v 26.11917 43.25832 7.44763
v 25.65337 43.25832 7.43869
v 25.96391 43.25832 7.45751
v 25.80862 43.25832 7.44857
v 25.49817 43.25832 7.34503
v 26.79094 43.25832 6.81133
v 26.79306 43.25832 6.79642
v 26.76187 43.25832 7.01560
v 25.95684 43.25832 7.45796
vn 0.000 1.000 0.000
vn 0.000 1.000 0.000
vn 0.000 1.000 0.000
vn 0.000 1.000 0.000
vn 0.000 1.000 0.000
vn 0.000 1.000 0.000
vn 0.000 1.000 0.000
vn 0.000 1.000 0.000
vn 0.000 1.000 0.000
vn 0.000 1.000 0.000
vn 0.000 1.000 0.000
vn 0.000 1.000 0.000
vn 0.000 1.000 0.000
vn 0.000 1.000 0.000
vn 0.000 1.000 0.000
vn 0.000 1.000 0.000
vn 0.000 1.000 0.000
vn 0.000 1.000 0.000
vn 0.000 1.000 0.000
vn 0.000 1.000 0.000
vn 0.000 1.000 0.000
vn 0.000 1.000 0.000
vn 0.000 0.000 0.000
vn 0.000 1.000 0.000
vn 0.000 0.000 0.000
vn 0.000 0.000 0.000
vn 0.000 1.000 0.000
vn 0.000 1.000 0.000
vn 0.000 1.000 0.000
vn 0.000 0.000 0.000
vn 0.000 1.000 0.000
vn 0.000 0.000 0.000
vn 0.000 0.000 0.000
vn 0.000 0.000 0.000
vn 0.000 1.000 0.000
vn 0.000 1.000 0.000
vn 0.000 1.000 0.000
vn 0.000 0.000 0.000
vn 0.000 1.000 0.000
vn 0.000 0.000 0.000
vn 0.000 1.000 0.000
vn 0.000 1.000 0.000
vn 0.000 1.000 0.000
vn 0.000 1.000 0.000
vn 0.000 1.000 0.000
vn 0.000 1.000 0.000
vn 0.000 1.000 0.000
vn 0.000 1.000 0.000
vn 0.000 1.000 0.000
vn 0.000 1.000 0.000
vn 0.000 1.000 0.000
vn 0.000 1.000 0.000
vn 0.000 1.000 0.000
vn 0.000 1.000 0.000
vn 0.000 1.000 0.000
vn 0.000 1.000 0.000
vn 0.000 1.000 0.000
vn 0.000 1.000 0.000
vn 0.000 1.000 0.000
vn 0.000 1.000 0.000
vn 0.000 0.000 0.000
vn 0.000 0.000 0.000
vn 0.000 0.000 0.000
vn 0.000 0.000 0.000
vn 0.000 1.000 0.000
vn 0.000 1.000 0.000
vn 0.000 1.000 0.000
vn 0.000 1.000 0.000
vn 0.000 1.000 0.000
vn 0.000 1.000 0.000
vn 0.000 1.000 0.000
vn 0.000 1.000 0.000
vn 0.000 1.000 0.000
vn 0.000 1.000 0.000
vn 0.000 1.000 0.000
vn 0.000 0.000 0.000
vn 0.000 -1.000 0.000
vn 0.000 -1.000 0.000
vn 0.000 -1.000 0.000
vn 0.000 -1.000 0.000
vn 0.000 -1.000 0.000
vn 0.000 -1.000 0.000
vn 0.000 -1.000 0.000
vn 0.000 -1.000 0.000
vn 0.000 -1.000 0.000
vn 0.000 -1.000 0.000
vn 0.000 -1.000 0.000
vn 0.000 -1.000 0.000
vn 0.000 -1.000 0.000
vn 0.000 -1.000 0.000
vn 0.000 -1.000 0.000
vn 0.000 -1.000 0.000
vn 0.000 -1.000 0.000
vn 0.000 -1.000 0.000
vn 0.000 -1.000 0.000
vn 0.000 -1.000 0.000
vn 0.000 -1.000 0.000
vn 0.000 -1.000 0.000
vn 0.000 -1.000 0.000
vn 0.000 -1.000 0.000
vn 0.000 -1.000 0.000
vn 0.000 -1.000 0.000
vn 0.000 -1.000 0.000
vn 0.000 -1.000 0.000
vn 0.000 -1.000 0.000
vn 0.000 -1.000 0.000
vn 0.000 -1.000 0.000
vn 0.000 -1.000 0.000
vn 0.000 -1.000 0.000
vn 0.000 -1.000 0.000
vn 0.000 -1.000 0.000
vn 0.000 -1.000 0.000
vn 0.000 -1.000 0.000
vn 0.000 -1.000 0.000
vn 0.036 0.000 -0.999
vn 0.036 0.000 -0.999
vn 0.036 0.000 -0.999
vn 0.036 0.000 -0.999
vn 0.036 0.000 -0.999
vn 0.036 0.000 -0.999
vn 0.036 0.000 -0.999
vn 0.036 0.000 -0.999
vn 0.036 0.000 -0.999
vn 0.036 0.000 -0.999
vn 0.036 0.000 -0.999
vn 0.036 0.000 -0.999
vn 0.036 0.000 -0.999
vn 0.280 0.000 -0.960
vn 0.280 0.000 -0.960
vn 0.280 0.000 -0.960
vn 0.280 0.000 -0.960
vn -0.036 0.000 -0.999
vn -0.036 0.000 -0.999
vn -0.036 0.000 -0.999
vn -0.036 0.000 -0.999
vn -0.036 0.000 -0.999
vn -0.036 0.000 -0.999
vn -0.280 0.000 -0.960
vn -0.280 0.000 -0.960
vn -0.280 0.000 -0.960
vn -0.280 0.000 -0.960
vn -0.280 0.000 -0.960
vn -0.280 0.000 -0.960
vn 0.750 0.000 -0.662
vn 0.750 0.000 -0.662
vn 0.750 0.000 -0.662
vn 0.750 0.000 -0.662
vn 0.750 0.000 -0.661
vn 0.750 0.000 -0.662
vn 0.995 0.000 -0.100
vn 0.995 0.000 -0.100
vn 0.995 0.000 -0.100
vn 0.995 0.000 -0.100
vn 0.995 0.000 -0.100
vn 0.995 0.000 -0.100
vn -0.750 0.000 -0.662
vn -0.750 0.000 -0.662
vn -0.750 0.000 -0.661
vn -0.750 0.000 -0.662
vn -0.749 0.000 -0.662
vn 0.990 0.000 0.141
vn 0.990 0.000 0.140
vn 0.990 0.000 0.141
vn 0.990 0.000 0.141
vn 0.990 0.000 0.141
vn 0.990 0.000 0.141
vn 0.990 0.000 0.141
vn 0.990 0.000 0.141
vn 0.990 0.000 0.140
vn -0.995 0.000 -0.100
vn -0.995 0.000 -0.100
vn -0.995 0.000 -0.100
vn -0.995 0.000 -0.100
vn 0.777 0.000 0.629
vn 0.777 0.000 0.629
vn 0.777 0.000 0.629
vn 0.777 0.000 0.629
vn 0.777 0.000 0.629
vn 0.777 0.000 0.629
vn -0.990 0.000 0.141
vn -0.990 0.000 0.141
vn -0.990 0.000 0.141
vn -0.990 0.000 0.141
vn -0.990 0.000 0.141
vn 0.063 0.000 0.998
vn 0.063 0.000 0.998
vn 0.063 0.000 0.998
vn 0.064 0.000 0.998
vn 0.064 0.000 0.998
vn 0.064 0.000 0.998
vn 0.063 0.000 0.998
vn 0.063 0.000 0.998
vn 0.063 0.000 0.998
vn 0.539 0.000 0.842
vn 0.533 0.000 0.846
vn 0.533 0.000 0.846
vn 0.533 0.000 0.846
vn 0.532 0.000 0.847
vn 0.532 0.000 0.847
vn 0.532 0.000 0.846
vn -0.777 0.000 0.629
vn -0.777 0.000 0.629
vn -0.777 0.000 0.629
vn -0.777 0.000 0.629
vn -0.777 0.000 0.629
vn -0.777 0.000 0.629
vn -0.533 0.000 0.846
vn -0.533 0.000 0.846
vn -0.532 0.000 0.847
vn -0.532 0.000 0.847
vn -0.532 0.000 0.847
vn -0.532 0.000 0.846
vn -0.539 0.000 0.843
vn -0.533 0.000 0.846
vn -0.063 0.000 0.998
vn -0.063 0.000 0.998
vn -0.063 0.000 0.998
vn -0.064 0.000 0.998
vn -0.063 0.000 0.998
vn -0.064 0.000 0.998
vn 0.533 0.000 0.846
vn -0.533 0.000 0.846
vn -0.280 0.000 -0.960
vn -0.279 0.000 -0.960
vn -0.279 0.000 -0.960
vn -0.279 0.000 -0.960
vn 0.279 0.000 -0.960
vn 0.279 0.000 -0.960
vn 0.279 0.000 -0.960
vn -0.036 0.000 -0.999
vn -0.281 0.000 -0.960
vn -0.280 0.000 -0.960
vn -0.286 0.000 -0.958
vn -0.280 0.000 -0.960
vn 0.280 0.000 -0.960
vn 0.280 0.000 -0.960
vn 0.280 0.000 -0.960
vn 0.287 0.000 -0.958
vn 0.280 0.000 -0.960
vn -0.063 0.000 0.998
vn -0.063 0.000 0.998
vn -0.063 0.000 0.998
vn 0.064 0.000 0.998
vn 0.063 0.000 0.998
vn 0.035 0.000 -0.999
vn 0.036 0.000 -0.999
vn 0.043 0.000 -0.999
vn 0.036 0.000 -0.999
vn -0.036 0.000 -0.999
vn -0.036 0.000 -0.999
vn -0.036 0.000 -0.999
vn -0.043 0.000 -0.999
vn -0.036 0.000 -0.999
vn 0.777 0.000 0.629
vn 0.773 0.000 0.635
vn 0.777 0.000 0.629
vn 0.996 0.000 -0.093
vn 0.995 0.000 -0.100
vn 0.995 0.000 -0.100
vn 0.741 -0.001 -0.672
vn 0.750 0.000 -0.662
vn 0.749 0.000 -0.662
vn 0.777 0.000 0.629
vn 0.777 0.000 0.629
vn -0.777 0.000 0.629
vn -0.777 0.000 0.629
vn 0.995 0.000 -0.100
vn 0.995 0.000 -0.100
vn -0.995 0.000 -0.100
vn -0.995 0.000 -0.100
vn 0.750 0.000 -0.662
vn 0.750 0.000 -0.662
vn -0.750 0.000 -0.662
vn -0.750 0.000 -0.662
vn -0.280 0.000 -0.960
vn -0.280 0.000 -0.960
vn 0.990 0.000 0.141
vn 0.990 0.000 0.141
vn 0.989 0.000 0.146
vn 0.990 0.000 0.141
vn 0.990 0.000 0.141
vn 0.990 0.000 0.141
vn -0.990 0.000 0.141
vn -0.990 0.000 0.141
vn -0.990 0.000 0.142
vn -0.990 0.000 0.141
vn -0.990 0.000 0.141
vn -0.990 0.000 0.141
vn -0.991 0.000 0.134
vn 0.062 0.000 0.998
vn 0.063 0.000 0.998
vn 0.064 0.000 0.998
vn 0.063 0.000 0.998
vn -0.533 0.000 0.846
vn -0.533 0.000 0.846
vn -0.533 0.000 0.846
vn -0.533 0.000 0.846
vn 0.990 0.000 0.141
vn 0.990 0.000 0.141
vn 0.533 0.000 0.846
vn 0.532 0.000 0.846
vn -0.532 0.000 0.846
vn -0.533 0.000 0.846
vn 0.063 0.000 0.998
vn -0.063 0.000 0.998
vn -0.063 0.000 0.998
vn -0.063 0.000 0.998
vn -0.995 0.000 -0.100
vn -0.995 0.000 -0.099
vn -0.995 0.000 -0.100
vn -0.993 0.000 -0.114
vn -0.772 0.000 0.635
vn -0.777 0.000 0.629
vn -0.777 0.000 0.629
vn -0.750 0.000 -0.662
vn -0.749 0.000 -0.662
vn -0.749 0.000 -0.662
vn -0.752 0.000 -0.660
vn -0.990 0.000 0.141
vn -0.993 0.000 0.119
vn -0.990 0.000 0.141
vn -0.990 0.000 0.141
vn 0.777 0.000 0.629
vn 0.533 0.000 0.846
vn -0.280 0.000 -0.960
vn 0.750 0.000 -0.662
vn 0.995 0.000 -0.100
vn -0.750 0.000 -0.662
vn -0.995 0.000 -0.100
vn -0.995 0.000 -0.100
vn -0.990 0.000 0.141
vn 0.063 0.000 0.998
vn 0.533 0.000 0.846
vn -0.777 0.000 0.629
vn -0.533 0.000 0.846
vn -0.533 0.000 0.846
vt 0.52941 0.95321 0.00000
vt 0.52941 0.90643 0.00000
vt 0.52157 0.95321 0.00000
vt 0.52941 0.99609 0.00000
vt 0.52876 0.99609 0.00000
vt 0.50250 0.90643 0.00000
vt 0.50784 0.95321 0.00000
vt 0.50196 0.90643 0.00000
vt 0.52193 0.95321 0.00000
vt 0.52361 0.95321 0.00000
vt 0.52893 0.99609 0.00000
vt 0.51781 0.90643 0.00000
vt 0.51444 0.90643 0.00000
vt 0.51373 0.90643 0.00000
vt 0.51373 0.95321 0.00000
vt 0.51373 0.99609 0.00000
vt 0.51438 0.99609 0.00000
vt 0.50758 0.95321 0.00000
vt 0.50245 0.99609 0.00000
vt 0.50243 0.99609 0.00000
vt 0.50483 0.95321 0.00000
vt 0.51326 0.99609 0.00000
vt 0.51323 0.99609 0.00000
vt 0.50811 0.95321 0.00000
vt 0.52121 0.95321 0.00000
vt 0.50220 0.99609 0.00000
vt 0.50196 0.95321 0.00000
vt 0.52870 0.90643 0.00000
vt 0.52094 0.99609 0.00000
vt 0.50196 0.99609 0.00000
vt 0.50510 0.99609 0.00000
vt 0.50771 0.90643 0.00000
vt 0.51319 0.90643 0.00000
vt 0.53333 0.95321 0.00000
vt 0.53690 0.90643 0.00000
vt 0.53315 0.95321 0.00000
vt 0.53351 0.95321 0.00000
vt 0.52959 0.95321 0.00000
vt 0.52977 0.90643 0.00000
vt 0.53725 0.95321 0.00000
vt 0.53725 0.90643 0.00000
vt 0.53725 0.99609 0.00000
vt 0.52974 0.99609 0.00000
vt 0.53693 0.99609 0.00000
vt 0.53708 0.95321 0.00000
vt 0.52975 0.99609 0.00000
vt 0.53724 0.99609 0.00000
vt 0.51408 0.95321 0.00000
vt 0.51068 0.95321 0.00000
vt 0.51545 0.95321 0.00000
vt 0.52905 0.95321 0.00000
vt 0.51347 0.99609 0.00000
vt 0.51387 0.99609 0.00000
vt 0.51346 0.95321 0.00000
vt 0.50223 0.95321 0.00000
vt 0.50764 0.90643 0.00000
vt 0.52873 0.99609 0.00000
vt 0.51718 0.90643 0.00000
vt 0.51994 0.99609 0.00000
vt 0.51376 0.99609 0.00000
usemtl material_1
f 1//76 2//76 3//76
f 4//77 5//77 6//77
f 4//78 6//78 7//78
f 8//75 9//75 10//75
f 11//72 9//72 12//72
f 13//73 9//73 11//73
f 10//74 9//74 13//74
f 14//83 15//83 16//83
f 14//84 16//84 17//84
f 18//85 14//85 19//85
f 20//82 4//82 21//82
f 4//79 7//79 14//79
f 4//80 22//80 23//80
f 4//81 23//81 5//81
f 24//62 9//62 25//62
f 26//63 9//63 24//63
f 27//64 9//64 26//64
f 25//61 9//61 28//61
f 29//58 8//58 30//58
f 31//59 8//59 29//59
f 32//60 8//60 31//60
f 33//69 9//69 34//69
f 35//70 9//70 33//70
f 12//71 9//71 35//71
f 34//68 9//68 36//68
f 37//65 9//65 27//65
f 38//66 9//66 37//66
f 36//67 9//67 38//67
f 14//86 39//86 40//86
f 41//105 42//105 14//105
f 14//106 43//106 44//106
f 14//107 17//107 45//107
f 41//104 46//104 47//104
f 48//101 49//101 50//101
f 44//102 41//102 14//102
f 41//103 44//103 46//103
f 51//112 52//112 50//112
f 52//113 53//113 50//113
f 54//114 55//114 14//114
f 55//111 56//111 14//111
f 56//108 19//108 14//108
f 14//109 45//109 43//109
f 57//110 54//110 14//110
f 14//91 50//91 4//91
f 42//92 57//92 14//92
f 50//93 58//93 4//93
f 58//90 21//90 4//90
f 14//87 40//87 15//87
f 4//88 59//88 22//88
f 39//89 14//89 7//89
f 18//98 60//98 50//98
f 60//99 48//99 50//99
f 49//100 51//100 50//100
f 14//97 18//97 50//97
f 61//94 62//94 59//94
f 4//95 61//95 59//95
f 4//96 20//96 63//96
f 64//19 8//19 65//19
f 66//20 8//20 64//20
f 67//21 8//21 66//21
f 65//18 8//18 68//18
f 69//15 8//15 70//15
f 71//16 8//16 69//16
f 68//17 8//17 71//17
f 72//26 73//26 74//26
f 75//27 73//27 72//27
f 9//28 73//28 75//28
f 74//25 73//25 76//25
f 77//22 8//22 67//22
f 78//23 73//23 79//23
f 78//24 76//24 73//24
f 8//5 80//5 81//5
f 8//6 82//6 80//6
f 8//7 83//7 82//7
f 8//4 81//4 84//4
f 8//1 85//1 86//1
f 8//2 87//2 85//2
f 8//3 84//3 87//3
f 8//12 88//12 89//12
f 8//13 32//13 88//13
f 70//14 8//14 90//14
f 8//11 89//11 91//11
f 8//8 92//8 83//8
f 8//9 93//9 92//9
f 8//10 91//10 93//10
f 8//29 73//29 9//29
f 73//48 94//48 95//48
f 73//49 96//49 94//49
f 73//50 97//50 96//50
f 73//47 95//47 98//47
f 73//44 99//44 100//44
f 73//45 101//45 99//45
f 73//46 98//46 101//46
f 102//55 8//55 77//55
f 103//56 8//56 102//56
f 30//57 8//57 103//57
f 73//54 8//54 104//54
f 73//51 105//51 97//51
f 73//52 106//52 105//52
f 73//53 104//53 106//53
f 3//34 107//34 1//34
f 31//35 2//35 32//35
f 31//36 3//36 2//36
f 108//33 78//33 109//33
f 79//30 110//30 78//30
f 86//31 104//31 8//31
f 109//32 78//32 110//32
f 73//41 111//41 112//41
f 73//42 113//42 111//42
f 73//43 100//43 113//43
f 73//40 112//40 114//40
f 10//37 90//37 8//37
f 115//38 114//38 116//38
f 73//39 114//39 115//39
usemtl material_2
f 117/1/229 22/2/229 118/3/229
f 113/4/228 117/1/228 111/5/228
f 118/3/227 111/5/227 117/1/227
f 20/6/230 119/7/230 63/8/230
f 25/5/233 28/5/233 120/9/233
f 120/9/232 121/10/232 25/5/232
f 24/11/231 25/5/231 121/10/231
f 120/9/275 50/12/275 121/10/275
f 53/2/276 121/10/276 50/12/276
f 121/10/325 53/2/325 122/1/325
f 58/13/223 123/3/223 21/14/223
f 124/15/226 21/14/226 123/3/226
f 72/16/225 124/15/225 75/17/225
f 123/3/224 75/17/224 124/15/224
f 123/3/234 120/9/234 28/5/234
f 125/7/248 126/18/248 79/19/248
f 110/20/247 79/19/247 126/18/247
f 126/18/246 127/21/246 110/20/246
f 124/15/249 72/16/249 74/22/249
f 74/22/252 76/23/252 128/24/252
f 21/14/251 124/15/251 128/24/251
f 124/15/250 74/22/250 128/24/250
f 62/14/237 129/15/237 130/25/237
f 129/15/236 114/17/236 130/25/236
f 129/15/235 116/16/235 114/17/235
f 114/17/238 112/17/238 130/25/238
f 109/26/245 110/20/245 127/21/245
f 119/7/253 128/24/253 76/23/253
f 118/3/239 130/25/239 112/17/239
f 21/14/132 128/24/132 20/6/132
f 111/5/131 118/3/131 112/17/131
f 131/27/134 63/8/134 119/7/134
f 119/7/133 20/6/133 128/24/133
f 62/14/128 130/25/128 59/28/128
f 125/7/127 115/23/127 129/15/127
f 22/2/130 59/28/130 118/3/130
f 130/25/129 118/3/129 59/28/129
f 122/1/140 24/11/140 121/10/140
f 24/11/139 122/1/139 26/4/139
f 123/3/142 9/29/142 75/17/142
f 123/3/141 58/13/141 120/9/141
f 78/19/136 119/7/136 76/23/136
f 108/30/135 131/27/135 78/19/135
f 50/12/138 120/9/138 58/13/138
f 119/7/137 78/19/137 131/27/137
f 79/19/126 73/31/126 125/7/126
f 63/8/120 127/21/120 4/32/120
f 63/8/119 131/27/119 127/21/119
f 62/14/122 61/33/122 125/7/122
f 126/18/121 125/7/121 61/33/121
f 127/21/115 126/18/115 4/32/115
f 61/33/116 4/32/116 126/18/116
f 131/27/118 109/26/118 127/21/118
f 131/27/117 108/30/117 109/26/117
f 9/29/143 123/3/143 28/5/143
f 115/23/124 125/7/124 73/31/124
f 116/16/125 129/15/125 115/23/125
f 129/15/123 62/14/123 125/7/123
usemtl material_3
f 132/34/272 23/35/272 133/36/272
f 134/37/273 135/38/273 52/39/273
f 22/2/271 133/36/271 23/35/271
f 136/40/268 6/41/268 137/40/268
f 138/40/269 139/40/269 49/41/269
f 48/41/270 138/40/270 49/41/270
f 140/40/281 40/41/281 141/40/281
f 141/40/280 106/42/280 140/40/280
f 104/42/279 140/40/279 106/42/279
f 51/41/274 134/37/274 52/39/274
f 85/42/278 140/40/278 86/42/278
f 86/42/277 140/40/277 104/42/277
f 137/40/258 95/42/258 136/40/258
f 96/42/259 136/40/259 94/42/259
f 99/43/260 132/34/260 100/43/260
f 80/43/254 142/34/254 81/44/254
f 94/42/257 136/40/257 95/42/257
f 143/37/256 84/44/256 142/34/256
f 81/44/255 142/34/255 84/44/255
f 144/36/265 145/45/265 56/35/265
f 55/2/266 144/36/266 56/35/266
f 5/41/267 137/40/267 6/41/267
f 15/41/264 143/37/264 16/39/264
f 133/36/261 100/43/261 132/34/261
f 101/44/262 132/34/262 99/43/262
f 142/34/263 16/39/263 143/37/263
f 27/4/318 26/4/318 135/38/318
f 122/1/317 135/38/317 26/4/317
f 37/46/316 27/4/316 134/37/316
f 146/40/321 147/40/321 11/42/321
f 11/42/320 12/42/320 146/40/320
f 148/40/319 146/40/319 12/42/319
f 135/38/315 134/37/315 27/4/315
f 34/42/311 36/42/311 139/40/311
f 149/40/310 139/40/310 36/42/310
f 33/42/309 34/42/309 138/40/309
f 150/40/314 145/45/314 69/42/314
f 145/45/313 150/40/313 19/41/313
f 71/47/312 69/42/312 145/45/312
f 13/42/322 11/42/322 147/40/322
f 151/48/333 152/15/333 43/14/333
f 153/49/332 43/14/332 152/15/332
f 146/40/331 148/40/331 48/41/331
f 154/50/336 42/14/336 155/15/336
f 156/51/335 157/1/335 55/2/335
f 144/36/334 55/2/334 157/1/334
f 138/40/330 48/41/330 148/40/330
f 132/34/326 158/40/326 5/41/326
f 159/9/324 17/2/324 160/1/324
f 142/34/323 160/1/323 17/2/323
f 139/40/329 149/40/329 51/41/329
f 134/37/328 51/41/328 149/40/328
f 137/40/327 5/41/327 158/40/327
f 153/49/291 152/15/291 91/16/291
f 153/49/290 91/16/290 89/52/290
f 70/42/289 90/42/289 161/40/289
f 30/16/294 103/53/294 155/15/294
f 88/22/293 162/24/293 153/49/293
f 153/49/292 89/52/292 88/22/292
f 147/40/288 161/40/288 90/42/288
f 147/40/284 146/40/284 60/41/284
f 18/41/283 147/40/283 60/41/283
f 39/41/282 141/40/282 40/41/282
f 161/40/287 150/40/287 70/42/287
f 150/40/286 161/40/286 19/41/286
f 69/42/285 70/42/285 150/40/285
f 154/50/295 155/15/295 103/53/295
f 42/14/305 163/54/305 155/15/305
f 162/24/304 164/55/304 46/6/304
f 55/2/303 54/28/303 156/51/303
f 139/40/308 138/40/308 34/42/308
f 165/18/307 163/54/307 41/33/307
f 42/14/306 41/33/306 163/54/306
f 166/25/302 156/51/302 54/28/302
f 106/42/298 141/40/298 105/42/298
f 102/17/297 166/25/297 154/50/297
f 154/50/296 103/53/296 102/17/296
f 159/9/301 151/48/301 45/13/301
f 43/14/300 45/13/300 151/48/300
f 167/40/299 105/42/299 141/40/299
f 138/40/171 148/40/171 35/42/171
f 35/42/170 33/42/170 138/40/170
f 12/42/172 35/42/172 148/40/172
f 82/4/174 160/1/174 80/43/174
f 51/41/173 49/41/173 139/40/173
f 167/40/166 7/41/166 168/40/166
f 141/40/165 39/41/165 167/40/165
f 168/40/167 97/42/167 167/40/167
f 105/42/169 167/40/169 97/42/169
f 7/41/168 167/40/168 39/41/168
f 142/34/175 80/43/175 160/1/175
f 48/41/182 60/41/182 146/40/182
f 147/40/181 18/41/181 161/40/181
f 10/42/183 13/42/183 147/40/183
f 43/14/185 153/49/185 44/56/185
f 90/42/184 10/42/184 147/40/184
f 143/37/177 15/41/177 169/40/177
f 16/39/176 142/34/176 17/2/176
f 84/44/178 143/37/178 87/42/178
f 19/41/180 161/40/180 18/41/180
f 169/40/179 87/42/179 143/37/179
f 95/42/150 137/40/150 98/42/150
f 132/34/149 101/44/149 158/40/149
f 158/40/151 98/42/151 137/40/151
f 168/40/153 7/41/153 136/40/153
f 6/41/152 136/40/152 7/41/152
f 100/43/145 133/36/145 113/4/145
f 133/36/144 22/2/144 117/1/144
f 117/1/146 113/4/146 133/36/146
f 98/42/148 158/40/148 101/44/148
f 23/35/147 132/34/147 5/41/147
f 97/42/154 168/40/154 96/42/154
f 169/40/161 15/41/161 140/40/161
f 135/38/160 122/1/160 53/2/160
f 87/42/162 169/40/162 85/42/162
f 40/41/164 140/40/164 15/41/164
f 140/40/163 85/42/163 169/40/163
f 38/44/156 37/46/156 134/37/156
f 136/40/155 96/42/155 168/40/155
f 134/37/157 149/40/157 38/44/157
f 53/2/159 52/39/159 135/38/159
f 36/42/158 38/44/158 149/40/158
f 66/4/213 64/4/213 157/1/213
f 156/51/212 166/25/212 67/57/212
f 157/1/214 156/51/214 66/4/214
f 155/15/216 163/54/216 29/16/216
f 155/15/215 29/16/215 30/16/215
f 166/25/208 57/58/208 154/50/208
f 42/14/207 154/50/207 57/58/207
f 166/25/209 102/17/209 77/59/209
f 77/59/211 67/57/211 166/25/211
f 67/57/210 66/4/210 156/51/210
f 170/27/217 165/18/217 47/8/217
f 31/23/241 29/16/241 163/54/241
f 47/8/240 165/18/240 41/33/240
f 163/54/242 165/18/242 31/23/242
f 164/55/244 162/24/244 2/19/244
f 2/19/243 1/30/243 164/55/243
f 165/18/219 170/27/219 3/20/219
f 107/30/218 3/20/218 170/27/218
f 3/20/220 31/23/220 165/18/220
f 57/58/222 166/25/222 54/28/222
f 17/2/221 159/9/221 45/13/221
f 47/8/192 46/6/192 164/55/192
f 170/27/191 164/55/191 1/30/191
f 47/8/193 164/55/193 170/27/193
f 152/15/195 151/48/195 93/60/195
f 93/60/194 91/16/194 152/15/194
f 44/56/187 153/49/187 162/24/187
f 162/24/186 46/6/186 44/56/186
f 2/19/188 162/24/188 32/31/188
f 170/27/190 1/30/190 107/30/190
f 88/22/189 32/31/189 162/24/189
f 82/4/196 83/5/196 160/1/196
f 65/43/203 68/44/203 144/36/203
f 145/45/202 144/36/202 71/47/202
f 144/36/204 157/1/204 65/43/204
f 19/41/206 56/35/206 145/45/206
f 64/4/205 65/43/205 157/1/205
f 83/5/198 92/17/198 159/9/198
f 159/9/197 160/1/197 83/5/197
f 92/17/199 93/60/199 151/48/199
f 68/44/201 71/47/201 144/36/201
f 151/48/200 159/9/200 92/17/200
####################################
