####################################
# netfabb Wavefront export         #
####################################
v 15.89785 -8.91005 0.28084
v 15.87333 -10.86418 0.50008
v 16.16590 -10.86381 -0.20712
v 16.33924 -8.75622 -0.34513
v 16.87299 -10.86386 -0.50009
v 17.58021 -10.86403 -0.20711
v 17.71841 -8.98479 -0.03504
v 17.87314 -10.86440 0.49961
v 17.84918 -9.24366 0.71875
v 17.58035 -10.86380 1.20679
v 17.40797 -9.24378 1.34430
v 16.87325 -10.86375 1.49976
v 17.62131 -9.24404 0.66827
v 16.65388 -9.24394 1.47500
v 16.16626 -10.86455 1.20679
v 16.02828 -8.90979 1.03462
v 16.32906 -12.57379 1.33868
v 15.89522 -12.57357 0.70873
v 16.57128 -14.04031 1.45266
v 15.98531 -14.11227 0.96012
v 16.03473 -12.57428 -0.04434
v 16.66521 -12.57354 -0.47836
v 17.41746 -12.57378 -0.33890
v 17.71245 -12.57420 1.04325
v 17.08262 -12.57376 1.47770
v 17.85130 -12.57401 0.29106
v 17.82652 -14.34643 0.80237
v 17.76140 -14.34566 0.03967
v 17.55590 -14.34629 0.14592
v 17.33382 -14.04011 1.38778
v 17.17585 -14.61529 -0.45392
v 15.92057 -14.34606 0.19746
v 16.41287 -14.61558 -0.38815
v 16.64073 -14.12025 1.23227
v 17.22683 -14.12005 1.18170
v 17.22731 -13.72036 1.18150
v 16.52020 -14.61549 -0.18247
v 16.19147 -14.11255 0.85300
v 17.60555 -14.34667 0.73181
v 17.10586 -14.61537 -0.23215
v 16.14066 -14.34601 0.26756
v 17.55568 -13.97441 0.14619
v 16.19150 -13.72115 0.85294
v 16.51982 -14.02439 -0.18241
v 16.14105 -14.02422 0.26692
v 16.64121 -13.72056 1.23207
v 17.60608 -13.72053 0.73217
v 17.10597 -13.97500 -0.23294
v 16.12528 -8.91387 0.33183
v 16.46344 -8.75561 -0.14784
v 16.46329 -9.24539 -0.14786
v 16.22628 -8.91426 0.90961
v 17.09333 -8.75606 -0.47583
v 17.04206 -8.75596 -0.24810
v 17.28378 -9.24439 1.14700
v 17.52149 -8.98520 0.09005
v 16.70515 -9.24404 1.24727
v 16.32371 -9.36682 1.02643
v 17.52118 -9.24552 0.08963
v 16.12510 -9.24485 0.33174
v 16.62665 -9.90678 1.36504
v 17.20561 -9.62633 1.26484
v 17.62143 -9.68971 0.66793
v 17.04169 -9.24476 -0.24815
v 19.79867 -14.03992 0.49804
v 20.09157 -14.31304 -0.20934
v 20.02790 -12.00829 -0.14010
v 20.79881 -14.19011 -0.50220
v 21.50529 -14.44043 -0.20892
v 21.43666 -12.00814 -0.27164
v 21.79855 -14.16614 0.49842
v 21.79377 -12.00816 0.40425
v 21.50570 -14.03954 1.20475
v 21.56888 -12.00838 1.13611
v 20.79845 -13.80592 1.49771
v 21.79691 -10.17873 0.45091
v 21.47158 -10.17915 -0.24173
v 20.09139 -14.03932 1.20474
v 20.16098 -12.00833 1.26810
v 19.98200 -12.00741 0.92946
v 19.80279 -12.00754 0.59174
v 20.89163 -12.00765 1.49326
v 20.84600 -10.17862 1.49661
v 21.53807 -10.17854 1.17042
v 20.14293 -10.78110 1.25255
v 20.12587 -10.17863 1.23753
v 20.70537 -12.00796 -0.49816
v 20.75145 -10.17915 -0.50082
v 20.05828 -10.17846 -0.17510
v 19.97183 -10.78055 0.90996
v 19.85298 -10.62304 1.15323
v 19.79922 -10.17933 0.54533
v 21.53854 -8.14055 1.17096
v 21.47129 -7.86778 -0.24235
v 20.05909 -7.86787 -0.17525
v 19.79943 -8.36067 0.54474
v 20.12525 -8.13986 1.23759
v 20.84538 -8.13985 1.49668
v 21.79761 -8.13968 0.45053
v 20.75116 -7.86779 -0.50144
v 20.23749 -8.13980 1.11410
v 21.41479 -8.14046 1.05909
v 21.35905 -7.86784 -0.11885
v 20.75927 -7.86795 -0.33498
v 20.18153 -7.86824 -0.06293
v 19.96534 -8.36082 0.53750
v 20.83835 -8.14047 1.33069
v 21.63148 -8.14059 0.45868
v 20.83767 -8.89573 1.33078
v 21.41489 -8.60662 1.05910
v 21.63136 -8.60577 0.45867
v 21.35955 -8.54395 -0.11879
v 20.75869 -8.54328 -0.33538
v 20.23789 -8.89584 1.11465
v 20.18181 -8.54337 -0.06288
v 19.96512 -8.54324 0.53753
v 20.22459 -14.28096 -0.07648
v 21.61005 -14.13428 0.49733
v 20.22424 -14.00821 1.07192
v 19.98682 -14.00835 0.49803
v 20.79829 -14.15796 -0.31355
v 21.37273 -14.40897 -0.07583
v 21.37276 -14.00808 1.07214
v 20.79883 -13.77355 1.30929
v 20.79824 -13.35463 1.30920
v 20.22415 -13.35455 1.07224
v 21.61032 -13.35450 0.49816
v 20.79821 -13.68155 -0.31374
v 21.37230 -13.68163 -0.07679
v 19.98673 -13.35469 0.49835
v 20.22465 -13.68157 -0.07656
v 21.37179 -13.35461 1.07201
v 19.92393 -10.39662 1.18564
v 19.80672 -10.48477 1.26053
v 19.75883 -10.48402 1.15951
v 19.96266 -10.17845 0.89097
v 19.84846 -10.48561 1.05152
v 19.93195 -10.53536 1.28561
v 19.76216 -10.59180 1.16363
v 19.81158 -10.59325 1.26423
####################################
vn -0.924 -0.031 -0.382
vn -0.383 -0.029 -0.923
vn 0.382 0.056 -0.922
vn 0.922 0.065 -0.382
vn 0.923 -0.038 0.382
vn 0.383 -0.038 0.923
vn -0.076 0.939 0.336
vn -0.383 -0.038 0.923
vn -0.923 -0.031 0.383
vn -0.823 -0.035 0.567
vn -0.639 -0.046 0.767
vn -0.983 -0.035 -0.182
vn 0.182 -0.035 -0.983
vn 0.567 -0.035 0.823
vn 0.823 -0.035 -0.567
vn -0.181 -0.035 0.983
vn -0.567 -0.035 -0.823
vn 0.983 -0.035 0.181
vn 0.002 -1.000 -0.001
vn 0.754 -0.041 0.656
vn 0.653 -0.035 -0.756
vn -0.565 -0.076 -0.821
vn 0.085 -0.047 0.995
vn 0.996 -0.038 -0.085
vn -0.086 -0.033 -0.996
vn -0.980 -0.087 -0.181
vn -0.086 0.000 -0.996
vn 0.000 -1.000 0.000
vn 0.144 -0.950 0.279
vn -0.239 -0.935 0.264
vn -0.116 -0.923 0.367
vn 0.424 -0.896 0.133
vn -0.135 -0.896 0.423
vn 0.030 -0.937 0.348
vn -0.068 -0.974 0.217
vn -0.996 -0.001 0.084
vn 0.085 0.000 0.996
vn 0.996 0.000 -0.086
vn 0.645 -0.001 -0.764
vn -0.765 0.001 -0.644
vn -0.644 0.001 0.765
vn 0.765 0.000 0.645
vn 0.817 0.000 0.576
vn 0.240 0.907 0.347
vn 0.001 1.000 0.000
vn -0.002 1.000 -0.002
vn 0.018 1.000 -0.003
vn -0.182 0.977 0.112
vn 0.164 0.951 0.261
vn 0.001 1.000 0.000
vn -0.022 0.995 0.100
vn 0.985 0.000 -0.172
vn -0.091 -0.164 -0.982
vn -0.985 0.000 0.171
vn 0.171 0.000 0.985
vn 0.523 -0.106 -0.845
vn -0.821 -0.008 -0.571
vn -0.576 -0.001 0.818
vn -0.820 0.030 -0.571
vn -0.171 0.029 -0.985
vn 0.563 -0.049 -0.825
vn 0.980 -0.055 -0.189
vn 0.817 0.038 0.576
vn 0.171 0.038 0.985
vn 0.230 0.903 0.364
vn -0.563 0.033 0.825
vn -0.985 0.031 0.170
vn -0.923 0.035 0.383
vn -0.823 0.044 0.567
vn -0.924 0.034 -0.382
vn 0.383 0.035 -0.923
vn 0.383 0.035 0.923
vn 0.923 0.035 -0.383
vn -0.383 0.035 0.923
vn -0.383 0.035 -0.923
vn 0.923 0.035 0.382
vn 0.001 -1.000 -0.001
vn 0.567 0.047 0.822
vn 0.823 0.039 -0.567
vn -0.749 0.063 -0.659
vn -0.181 0.046 0.982
vn 0.983 0.039 0.181
vn 0.182 0.034 -0.983
vn -0.995 0.073 0.062
vn -0.086 0.000 -0.996
vn 0.000 -1.000 0.000
vn -0.120 -0.919 0.377
vn 0.046 -0.995 0.091
vn -0.091 -0.912 0.401
vn 0.165 -0.935 0.314
vn -0.315 -0.935 0.165
vn 0.030 -0.937 0.349
vn 0.000 -1.000 0.001
vn 0.264 -0.866 0.425
vn 0.090 -0.993 0.076
vn -0.113 -0.984 0.135
vn 0.398 -0.854 0.336
vn -0.996 0.001 0.085
vn 0.086 0.001 0.996
vn 0.996 -0.001 -0.086
vn 0.645 0.000 -0.765
vn -0.765 0.001 -0.645
vn -0.645 -0.001 0.765
vn 0.765 0.000 0.645
vn 0.817 -0.001 0.576
vn 0.508 0.854 0.114
vn -0.001 1.000 -0.003
vn -0.002 1.000 0.000
vn 0.021 1.000 -0.003
vn -0.047 0.958 0.283
vn 0.380 0.921 0.085
vn -0.001 1.000 -0.003
vn -0.001 1.000 0.003
vn 0.174 0.977 0.122
vn -0.089 0.493 0.866
vn 0.261 0.962 0.080
vn 0.340 0.773 0.535
vn 0.958 0.142 -0.249
vn -0.165 -0.260 -0.951
vn -0.985 0.001 0.171
vn 0.171 0.000 0.985
vn 0.539 -0.209 -0.816
vn -0.817 0.000 -0.576
vn -0.576 0.000 0.817
vn -0.926 -0.014 -0.378
vn -0.385 0.017 -0.923
vn 0.379 -0.013 -0.925
vn 0.921 0.016 -0.388
vn 0.925 0.019 0.380
vn 0.388 0.019 0.921
vn 0.905 0.009 -0.425
vn -0.378 -0.016 0.926
vn -0.883 -0.020 0.469
vn 0.426 0.009 0.905
vn -0.338 0.014 0.941
vn -0.425 0.009 -0.905
vn 0.941 0.009 0.338
vn -0.530 -0.806 0.263
vn -0.941 0.009 -0.338
vn 0.339 0.009 -0.941
vn 0.941 0.000 0.339
vn 0.339 0.000 -0.941
vn -0.941 0.000 -0.339
vn -0.905 0.000 0.426
vn 0.426 0.000 0.905
vn 0.905 0.000 -0.425
vn -0.425 0.000 -0.905
vn -0.339 0.000 0.941
vn 0.000 1.000 0.000
vn 0.000 1.000 0.001
vn 0.000 1.000 0.000
vn -0.385 0.820 0.423
vn -0.015 0.936 -0.352
vn -0.001 1.000 -0.004
vn 0.016 0.907 0.421
vn 0.000 1.000 0.001
vn -0.426 0.000 -0.905
vn -0.905 0.000 0.426
vn 0.426 -0.001 0.905
vn 0.339 -0.001 -0.941
vn -0.941 0.000 -0.339
vn -0.339 0.000 0.941
vn 0.941 0.000 0.339
vn 0.904 -0.001 -0.426
vn 0.033 0.999 0.030
vn 0.190 -0.981 0.047
vn -0.166 -0.980 0.107
vn 0.164 -0.984 -0.067
vn 0.146 -0.869 0.473
vn -0.447 -0.882 0.149
vn -0.289 -0.955 0.063
vn 0.101 -0.941 0.323
vn 0.427 -0.891 -0.152
vn 0.382 0.000 -0.924
vn -0.924 0.001 -0.382
vn -0.382 0.000 0.924
vn 0.924 0.000 0.382
vn 0.924 0.000 -0.382
vn -0.382 -0.001 -0.924
vn -0.924 0.000 0.383
vn 0.382 0.000 0.924
vn 0.000 -1.000 0.000
vn -0.484 0.843 0.236
vn -0.728 0.593 0.343
vn -0.895 0.000 0.447
vn -0.904 0.000 0.427
vn -0.785 -0.031 -0.619
vn 0.189 0.030 0.982
vn -0.904 -0.012 0.428
vn -0.769 -0.048 -0.638
vn -0.187 0.025 0.982
vn -0.308 -0.941 0.138
vn -0.956 0.015 -0.294
vn -0.467 -0.018 -0.884
vn 0.296 0.014 -0.955
vn 0.884 -0.018 -0.467
vn 0.956 -0.020 0.294
vn 0.466 -0.022 0.884
vn 0.884 -0.009 -0.467
vn -0.294 0.018 0.955
vn -0.924 0.002 0.383
vn -0.884 0.016 0.467
vn 0.466 -0.009 0.885
vn -0.294 0.008 0.956
vn -0.320 -0.010 0.947
vn -0.467 -0.009 -0.884
vn 0.956 -0.009 0.294
vn -0.520 -0.536 0.665
vn -0.956 -0.009 -0.294
vn 0.296 -0.009 -0.955
vn 0.941 0.000 0.338
vn 0.339 0.000 -0.941
vn -0.941 0.000 -0.338
vn -0.904 0.000 0.427
vn -0.905 0.000 0.426
vn 0.425 0.000 0.905
vn 0.905 0.000 -0.426
vn -0.426 0.000 -0.905
vn -0.339 0.000 0.941
vn 0.002 1.000 -0.004
vn -0.006 1.000 -0.002
vn 0.000 1.000 0.001
vn 0.029 0.768 0.640
vn -0.221 0.955 -0.200
vn 0.000 1.000 0.001
vn 0.265 0.933 0.241
vn 0.001 1.000 0.003
vn -0.426 0.000 -0.905
vn -0.905 -0.001 0.426
vn 0.427 0.000 0.904
vn 0.339 0.000 -0.941
vn -0.941 0.000 -0.339
vn -0.339 0.000 0.941
vn 0.941 -0.001 0.339
vn 0.904 0.000 -0.427
vn 0.000 1.000 0.000
vn -0.170 0.803 0.571
vn -0.183 0.842 0.507
vn 0.126 0.991 0.047
vn -0.018 0.998 0.054
vn 0.271 -0.949 0.162
vn -0.306 -0.948 0.082
vn 0.165 -0.984 -0.068
vn -0.096 -0.941 0.324
vn -0.304 -0.949 -0.078
vn -0.428 -0.891 -0.154
vn -0.149 -0.866 0.477
vn 0.288 -0.955 0.065
vn 0.382 0.001 -0.924
vn -0.923 -0.001 -0.384
vn -0.382 0.001 0.924
vn 0.924 0.000 0.382
vn 0.924 0.000 -0.382
vn -0.382 -0.001 -0.924
vn -0.924 0.000 0.383
vn 0.382 0.000 0.924
vn 0.000 -1.000 0.000
vn 0.228 -0.803 0.551
vn -0.228 -0.803 0.551
vn 0.000 -0.928 0.374
vn 0.000 -1.000 0.000
vn -0.397 0.852 -0.342
vn -0.877 0.434 0.206
vn -0.884 -0.007 0.467
vn -0.898 0.009 0.441
vn -0.883 0.000 0.469
vn -0.924 -0.246 -0.292
vn -0.630 0.430 0.647
vn -0.897 -0.025 0.441
vn -0.286 -0.576 -0.766
vn 0.075 0.586 0.807
vn 0.351 -0.863 0.363
####################################
f 1//1 3//1 2//1
f 4//2 5//2 3//2
f 5//3 7//3 6//3
f 6//4 9//4 8//4
f 9//5 10//5 8//5
f 11//6 12//6 10//6
f 7//7 13//7 9//7
f 14//8 15//8 12//8
f 16//9 2//9 15//9
f 15//10 18//10 17//10
f 17//11 20//11 19//11
f 2//12 21//12 18//12
f 5//13 23//13 22//13
f 10//14 25//14 24//14
f 6//15 26//15 23//15
f 12//16 17//16 25//16
f 3//17 22//17 21//17
f 8//18 24//18 26//18
f 27//19 29//19 28//19
f 24//20 30//20 27//20
f 23//21 28//21 31//21
f 22//22 32//22 21//22
f 25//23 19//23 30//23
f 26//24 27//24 28//24
f 22//25 31//25 33//25
f 21//26 20//26 18//26
f 34//27 36//27 35//27
f 31//28 37//28 33//28
f 32//29 38//29 20//29
f 19//30 38//30 34//30
f 27//31 35//31 39//31
f 31//32 29//32 40//32
f 32//33 37//33 41//33
f 19//34 35//34 30//34
f 42//35 36//35 43//35
f 39//36 42//36 29//36
f 40//37 44//37 37//37
f 38//38 45//38 43//38
f 38//39 46//39 34//39
f 35//40 47//40 39//40
f 29//41 48//41 40//41
f 41//42 44//42 45//42
f 49//43 51//43 50//43
f 14//44 52//44 16//44
f 53//45 50//45 54//45
f 9//46 55//46 11//46
f 16//47 49//47 1//47
f 1//48 50//48 4//48
f 53//49 56//49 7//49
f 14//50 55//50 57//50
f 58//51 59//51 51//51
f 52//52 60//52 49//52
f 57//53 62//53 61//53
f 13//54 59//54 63//54
f 50//55 64//55 54//55
f 57//56 58//56 52//56
f 55//57 63//57 62//57
f 56//58 64//58 59//58
f 1//59 4//59 3//59
f 4//60 53//60 5//60
f 5//61 53//61 7//61
f 6//62 7//62 9//62
f 9//63 11//63 10//63
f 11//64 14//64 12//64
f 7//65 56//65 13//65
f 14//66 16//66 15//66
f 16//67 1//67 2//67
f 15//68 2//68 18//68
f 17//69 18//69 20//69
f 2//70 3//70 21//70
f 5//71 6//71 23//71
f 10//72 12//72 25//72
f 6//73 8//73 26//73
f 12//74 15//74 17//74
f 3//75 5//75 22//75
f 8//76 10//76 24//76
f 27//77 39//77 29//77
f 24//78 25//78 30//78
f 23//79 26//79 28//79
f 22//80 33//80 32//80
f 25//81 17//81 19//81
f 26//82 24//82 27//82
f 22//83 23//83 31//83
f 21//84 32//84 20//84
f 34//85 46//85 36//85
f 31//86 40//86 37//86
f 32//87 41//87 38//87
f 19//88 20//88 38//88
f 27//89 30//89 35//89
f 31//90 28//90 29//90
f 32//91 33//91 37//91
f 19//92 34//92 35//92
f 46//93 43//93 36//93
f 43//94 45//94 48//94
f 45//95 44//95 48//95
f 48//96 42//96 43//96
f 42//97 47//97 36//97
f 39//98 47//98 42//98
f 40//99 48//99 44//99
f 38//100 41//100 45//100
f 38//101 43//101 46//101
f 35//102 36//102 47//102
f 29//103 42//103 48//103
f 41//104 37//104 44//104
f 49//105 60//105 51//105
f 14//106 57//106 52//106
f 53//107 4//107 50//107
f 9//108 13//108 55//108
f 16//109 52//109 49//109
f 1//110 49//110 50//110
f 53//111 54//111 56//111
f 14//112 11//112 55//112
f 64//113 51//113 59//113
f 51//114 60//114 58//114
f 58//115 61//115 62//115
f 62//116 63//116 58//116
f 63//117 59//117 58//117
f 52//118 58//118 60//118
f 57//119 55//119 62//119
f 13//120 56//120 59//120
f 50//121 51//121 64//121
f 57//122 61//122 58//122
f 55//123 13//123 63//123
f 56//124 54//124 64//124
f 65//125 67//125 66//125
f 67//126 68//126 66//126
f 68//127 70//127 69//127
f 70//128 71//128 69//128
f 72//129 73//129 71//129
f 74//130 75//130 73//130
f 72//131 77//131 76//131
f 75//132 79//132 78//132
f 80//133 81//133 65//133
f 82//134 84//134 83//134
f 83//135 86//135 85//135
f 87//136 89//136 88//136
f 74//137 76//137 84//137
f 85//138 91//138 90//138
f 67//139 92//139 89//139
f 70//140 88//140 77//140
f 76//141 93//141 84//141
f 88//142 94//142 77//142
f 89//143 96//143 95//143
f 86//144 97//144 96//144
f 84//145 98//145 83//145
f 77//146 99//146 76//146
f 89//147 100//147 88//147
f 83//148 97//148 86//148
f 98//149 101//149 97//149
f 99//150 102//150 93//150
f 94//151 104//151 103//151
f 96//152 105//152 95//152
f 96//153 101//153 106//153
f 93//154 107//154 98//154
f 99//155 103//155 108//155
f 95//156 104//156 100//156
f 107//157 110//157 109//157
f 108//158 112//158 111//158
f 105//159 113//159 104//159
f 107//160 114//160 101//160
f 108//161 110//161 102//161
f 104//162 112//162 103//162
f 106//163 115//163 105//163
f 101//164 116//164 106//164
f 113//165 116//165 110//165
f 68//166 117//166 66//166
f 73//167 118//167 71//167
f 65//168 119//168 78//168
f 65//169 117//169 120//169
f 68//170 122//170 121//170
f 75//171 123//171 73//171
f 71//172 122//172 69//172
f 75//173 119//173 124//173
f 124//174 126//174 125//174
f 123//175 127//175 118//175
f 121//176 129//176 128//176
f 120//177 131//177 130//177
f 120//178 126//178 119//178
f 124//179 132//179 123//179
f 118//180 129//180 122//180
f 121//181 131//181 117//181
f 127//182 125//182 130//182
f 133//183 135//183 134//183
f 136//184 133//184 86//184
f 80//185 85//185 90//185
f 90//186 136//186 92//186
f 90//187 137//187 136//187
f 86//188 138//188 85//188
f 139//189 134//189 135//189
f 137//190 139//190 135//190
f 138//191 134//191 140//191
f 91//192 140//192 139//192
f 65//193 81//193 67//193
f 67//194 87//194 68//194
f 68//195 87//195 70//195
f 70//196 72//196 71//196
f 72//197 74//197 73//197
f 74//198 82//198 75//198
f 72//199 70//199 77//199
f 75//200 82//200 79//200
f 65//201 78//201 80//201
f 78//202 79//202 80//202
f 82//203 74//203 84//203
f 85//204 79//204 82//204
f 82//205 83//205 85//205
f 87//206 67//206 89//206
f 74//207 72//207 76//207
f 85//208 138//208 91//208
f 67//209 81//209 92//209
f 70//210 87//210 88//210
f 76//211 99//211 93//211
f 88//212 100//212 94//212
f 89//213 92//213 96//213
f 96//214 92//214 136//214
f 136//215 86//215 96//215
f 84//216 93//216 98//216
f 77//217 94//217 99//217
f 89//218 95//218 100//218
f 83//219 98//219 97//219
f 98//220 107//220 101//220
f 99//221 108//221 102//221
f 94//222 100//222 104//222
f 96//223 106//223 105//223
f 96//224 97//224 101//224
f 93//225 102//225 107//225
f 99//226 94//226 103//226
f 95//227 105//227 104//227
f 107//228 102//228 110//228
f 108//229 103//229 112//229
f 105//230 115//230 113//230
f 107//231 109//231 114//231
f 108//232 111//232 110//232
f 104//233 113//233 112//233
f 106//234 116//234 115//234
f 101//235 114//235 116//235
f 113//236 115//236 116//236
f 116//237 114//237 110//237
f 114//238 109//238 110//238
f 110//239 111//239 112//239
f 113//240 110//240 112//240
f 68//241 121//241 117//241
f 73//242 123//242 118//242
f 65//243 120//243 119//243
f 65//244 66//244 117//244
f 68//245 69//245 122//245
f 75//246 124//246 123//246
f 71//247 118//247 122//247
f 75//248 78//248 119//248
f 124//249 119//249 126//249
f 123//250 132//250 127//250
f 121//251 122//251 129//251
f 120//252 117//252 131//252
f 120//253 130//253 126//253
f 124//254 125//254 132//254
f 118//255 127//255 129//255
f 121//256 128//256 131//256
f 126//257 130//257 125//257
f 130//258 131//258 128//258
f 127//259 128//259 129//259
f 130//260 128//260 127//260
f 127//261 132//261 125//261
f 133//262 137//262 135//262
f 136//263 137//263 133//263
f 80//264 79//264 85//264
f 92//265 81//265 90//265
f 81//266 80//266 90//266
f 90//267 91//267 137//267
f 86//268 133//268 138//268
f 139//269 140//269 134//269
f 137//270 91//270 139//270
f 138//271 133//271 134//271
f 91//272 138//272 140//272
####################################
