####################################
# netfabb Wavefront export         #
####################################
v 13.97373 -4.24914 2.82013
v 14.33313 -3.38274 2.81965
v 14.41603 -3.58784 3.22725
v 15.19855 -2.89098 2.82024
v 15.11138 -3.09586 3.22851
v 16.06404 -3.25029 2.82003
v 15.85785 -3.33261 3.22729
v 16.34481 -4.24803 2.81969
v 16.14061 -4.16136 3.22894
v 15.98652 -5.11343 2.81928
v 15.90370 -4.90834 3.22745
v 15.19827 -5.47219 2.81882
v 15.28539 -5.26831 3.22731
v 14.17789 -4.33580 3.22763
v 14.41517 -4.32689 3.53599
v 14.69983 -4.85465 3.48210
v 14.33276 -5.11489 2.81904
v 14.53991 -5.03158 3.22863
v 15.27546 -5.02716 3.45925
v 14.78266 -4.78772 3.82091
v 14.59089 -3.75213 3.58943
v 15.69694 -3.64354 3.58849
v 15.12033 -3.47001 3.61123
v 15.98061 -4.17028 3.53449
v 15.80689 -4.74406 3.48126
v 15.26502 -4.93502 3.81708
v 15.26646 -4.88503 5.07148
v 15.67271 -4.66931 5.07096
v 15.71288 -4.69583 3.81601
v 15.85856 -4.21269 3.82006
v 15.62131 -3.76656 3.82589
v 15.13577 -3.61822 3.83138
v 14.69100 -3.85745 3.83178
v 14.54321 -4.34156 3.82852
v 14.60944 -4.34543 5.08196
v 14.74352 -3.90514 5.08582
v 13.42655 -2.82388 4.62366
v 15.80480 -4.22899 5.07460
v 15.14967 -3.68841 5.08629
v 14.82611 -4.75228 5.07585
v 15.59012 -3.82216 5.08092
v 12.91437 -4.51235 4.60774
v 15.43286 -6.58135 4.56685
v 17.50115 -4.06308 4.58133
v 16.67000 -2.50612 4.60368
v 14.98356 -1.99310 4.62331
v 13.74554 -6.06832 4.58538
v 16.98988 -5.74956 4.56650
v 14.24911 -5.07979 6.49841
v 15.16579 -5.53378 6.48779
v 16.13687 -5.20540 6.48699
v 16.59151 -4.28725 6.49575
v 16.26358 -3.31789 6.51013
v 15.34592 -2.86290 6.52064
v 14.37584 -3.19028 6.52155
v 13.92231 -4.10845 6.51190
v 15.38585 -2.25837 6.36419
v 13.97726 -2.73505 6.36504
v 13.79422 -5.47690 6.33197
v 16.53570 -5.66064 6.31662
v 17.19454 -4.32811 6.32883
v 16.71973 -2.91880 6.34980
v 13.31741 -4.06857 6.35272
v 15.12600 -6.13731 6.31836
v 14.28361 -4.74821 8.83628
v 15.39174 -5.46772 8.81863
v 16.11080 -4.35999 8.82360
v 15.00267 -3.64049 8.84126
v 14.68852 -5.33654 8.82569
v 15.97948 -5.06334 8.81841
v 15.70679 -3.77068 8.83530
v 14.41284 -4.04484 8.84226
v 15.94386 -3.40573 8.56677
v 14.91311 -3.21329 8.57747
v 14.04813 -3.80707 8.57908
v 13.85663 -4.83866 8.56984
v 15.48111 -5.89392 8.54627
v 16.53768 -4.26954 8.55291
v 14.45033 -5.70347 8.55697
v 16.34509 -5.30012 8.54455
v 15.03755 -4.59803 10.70522
v 15.75342 -4.44534 10.69913
v 15.60275 -3.72932 10.70894
v 15.21207 -3.65722 10.71175
v 14.88501 -3.88098 10.71383
v 14.81408 -4.27209 10.70870
v 15.42745 -4.67011 10.70032
v 15.82644 -4.05526 10.70348
v 15.49789 -4.12098 11.82369
v 14.10160 0.52761 3.32816
v 13.82338 0.52823 2.86045
v 14.23949 1.42388 2.86004
v 14.40481 1.25972 3.32882
v 15.13628 1.69522 2.86032
v 16.03319 1.42551 2.85936
v 15.86751 1.26066 3.32847
v 16.40462 0.52860 2.86066
v 16.11276 -0.49369 2.85964
v 15.86741 -0.20447 3.32952
v 15.13589 -0.74098 2.85869
v 14.34113 0.64149 3.92530
v 14.49328 0.04546 3.92554
v 14.23919 -0.37026 2.86053
v 14.40386 -0.20340 3.32877
v 14.53000 0.16999 4.70587
v 14.96046 -0.15464 4.70471
v 14.65382 1.16946 3.92526
v 15.77947 1.01078 3.92481
v 15.25032 1.32270 3.92534
v 15.13721 -0.50698 3.32924
v 15.02352 -0.26748 3.92412
v 15.61890 -0.11522 3.92508
v 16.17172 0.52763 3.32929
v 15.93162 0.41475 3.92504
v 15.13613 1.56321 3.32821
v 14.84377 0.03589 5.98935
v 15.27654 -0.02675 5.98908
v 15.49453 -0.08060 4.70517
v 15.82001 0.35220 4.70565
v 15.74346 0.88524 4.70565
v 15.31321 1.20988 4.70482
v 14.77904 1.13583 4.70535
v 14.45556 0.70401 4.70509
v 14.99524 1.08301 5.98921
v 14.58083 2.71955 5.22076
v 13.19200 1.68356 5.22254
v 15.62795 0.23469 5.98960
v 15.69192 0.66890 5.98988
v 15.42989 1.01934 5.99015
v 14.58272 0.38632 5.98973
v 14.64580 0.81954 5.98891
v 13.97959 -1.41597 5.22178
v 12.94440 -0.02836 5.22225
v 14.11292 0.26844 7.07055
v 15.69328 -1.52831 5.22164
v 17.08100 -0.49230 5.22075
v 16.29474 2.47219 5.22084
v 17.32983 1.08459 5.22136
v 15.39665 -0.49736 7.06999
v 16.04374 -0.01275 7.07005
v 16.16086 0.78779 7.06955
v 14.87622 1.55160 7.06901
v 14.22814 1.06800 7.06884
v 14.59636 -0.38092 7.07057
v 15.67829 1.43614 7.07063
v 16.01893 2.41178 6.20795
v 13.18150 -0.17947 6.20877
v 15.84400 -1.42726 6.20950
v 17.09199 1.23470 6.20826
v 14.42929 2.48350 6.20952
v 13.25347 1.41073 6.20930
v 14.25358 -1.35554 6.20897
v 17.01993 -0.35450 6.20873
v 14.48877 0.91259 8.61717
v 14.40701 0.34261 8.61615
v 14.75110 -0.11891 8.61589
v 15.32221 -0.20236 8.61757
v 15.78448 0.14264 8.61691
v 15.86646 0.71262 8.61593
v 15.52127 1.17416 8.61709
v 14.95204 1.25759 8.61661
v 16.78662 0.91365 7.74274
v 16.03088 1.96559 7.74180
v 14.75197 2.17727 7.74267
v 13.69900 1.42093 7.74223
v 13.48708 0.14258 7.74319
v 14.24292 -0.91036 7.74314
v 15.52083 -1.12203 7.74217
v 16.57578 -0.36671 7.74282
v 14.54949 0.39076 10.04476
v 15.27297 -0.05971 10.04437
v 15.72384 0.66448 10.04596
v 14.99948 1.11496 10.04525
v 14.62390 0.84683 10.04414
v 14.81817 0.01622 10.04525
v 15.64856 0.20942 10.04548
v 15.45429 1.04002 10.04437
v 15.13784 0.52910 11.78814
####################################
vn -0.863 0.358 0.356
vn -0.469 0.825 0.314
vn 0.358 0.863 0.356
vn 0.887 0.249 0.390
vn 0.864 -0.358 0.355
vn 0.389 -0.855 0.344
vn -0.706 -0.438 0.556
vn -0.357 -0.864 0.356
vn -0.863 -0.358 0.356
vn 0.000 0.001 -1.000
vn -0.269 -0.930 0.250
vn -0.840 0.210 0.501
vn 0.233 0.683 0.692
vn 0.370 -0.636 0.677
vn 0.810 0.392 0.436
vn -0.229 -0.724 0.650
vn -0.449 0.634 0.630
vn 0.831 -0.265 0.488
vn 0.469 -0.883 0.035
vn 0.914 -0.278 0.297
vn 0.257 0.822 0.508
vn -0.863 0.222 0.453
vn -0.815 -0.474 0.333
vn 0.458 -0.857 0.234
vn 0.808 0.424 0.408
vn -0.416 0.740 0.528
vn 0.275 -0.075 -0.959
vn 0.882 0.469 0.044
vn -0.473 0.879 0.054
vn -0.288 -0.957 0.037
vn 0.957 -0.289 0.037
vn 0.292 0.955 0.050
vn -0.956 0.291 0.051
vn -0.881 -0.470 0.045
vn 0.253 0.149 -0.956
vn -0.144 0.269 -0.952
vn -0.265 -0.128 -0.956
vn 0.133 -0.249 -0.959
vn 0.078 0.291 -0.953
vn -0.287 0.095 -0.953
vn -0.094 -0.271 -0.958
vn -0.379 -0.778 0.502
vn 0.792 -0.397 0.464
vn 0.405 0.807 0.430
vn -0.793 0.387 0.471
vn -0.821 -0.283 0.495
vn 0.280 -0.826 0.489
vn 0.853 0.282 0.438
vn -0.286 0.849 0.444
vn 0.086 -0.255 -0.963
vn 0.120 0.264 -0.957
vn -0.255 0.135 -0.957
vn -0.129 -0.239 -0.962
vn 0.249 -0.113 -0.962
vn 0.259 0.101 -0.961
vn -0.094 0.275 -0.957
vn -0.271 -0.077 -0.960
vn -0.911 -0.312 0.269
vn 0.313 -0.925 0.214
vn 0.877 0.290 0.384
vn -0.289 0.854 0.432
vn -0.433 -0.878 0.205
vn 0.856 -0.426 0.292
vn 0.402 0.803 0.439
vn -0.836 0.410 0.364
vn -0.110 -0.542 -0.833
vn 0.542 -0.093 -0.835
vn 0.450 0.325 -0.832
vn -0.318 0.462 -0.828
vn -0.463 -0.305 -0.832
vn 0.309 -0.452 -0.837
vn 0.094 0.548 -0.831
vn -0.550 0.109 -0.828
vn -0.154 -0.861 0.485
vn 0.929 -0.176 0.325
vn 0.180 0.968 0.175
vn -0.917 0.162 0.365
vn -0.730 -0.505 0.461
vn 0.511 -0.742 0.434
vn 0.807 0.551 0.212
vn -0.547 0.801 0.243
vn 0.797 0.542 0.266
vn -0.505 0.743 0.440
vn -0.158 -0.883 0.442
vn 0.947 -0.180 0.267
vn 0.173 0.924 0.341
vn -0.852 0.148 0.502
vn -0.711 -0.493 0.503
vn 0.534 -0.772 0.344
vn -0.838 0.267 0.476
vn -0.511 0.721 0.467
vn 0.266 0.837 0.477
vn 0.831 0.284 0.478
vn 0.839 -0.267 0.475
vn 0.443 -0.762 0.473
vn -0.666 -0.345 0.661
vn -0.266 -0.839 0.475
vn -0.780 -0.405 0.477
vn 0.000 0.001 -1.000
vn 0.000 0.000 -1.000
vn 0.000 0.001 -1.000
vn 0.000 0.001 -1.000
vn 0.000 0.000 -1.000
vn -0.282 -0.931 0.231
vn -0.772 0.246 0.587
vn 0.223 0.700 0.679
vn 0.357 -0.716 0.600
vn 0.775 0.265 0.574
vn -0.178 -0.686 0.706
vn -0.415 0.737 0.534
vn 0.849 -0.298 0.436
vn 0.471 -0.882 0.034
vn 0.892 -0.301 0.337
vn 0.264 0.809 0.526
vn -0.878 0.265 0.398
vn -0.840 -0.456 0.295
vn 0.447 -0.859 0.249
vn 0.802 0.385 0.455
vn -0.410 0.763 0.501
vn 0.275 -0.075 -0.958
vn 0.884 0.466 0.043
vn -0.470 0.881 0.053
vn -0.292 -0.956 0.038
vn 0.957 -0.287 0.037
vn 0.291 0.955 0.050
vn -0.955 0.291 0.051
vn -0.880 -0.473 0.044
vn 0.253 0.149 -0.956
vn -0.144 0.269 -0.952
vn -0.268 -0.127 -0.955
vn 0.133 -0.248 -0.960
vn 0.078 0.291 -0.953
vn -0.286 0.094 -0.953
vn -0.094 -0.271 -0.958
vn -0.258 -0.863 0.435
vn 0.881 -0.271 0.387
vn 0.276 0.893 0.357
vn -0.875 0.262 0.408
vn -0.793 -0.430 0.431
vn 0.428 -0.802 0.417
vn 0.825 0.435 0.361
vn -0.436 0.818 0.376
vn 0.086 -0.256 -0.963
vn 0.120 0.261 -0.958
vn -0.256 0.136 -0.957
vn -0.130 -0.240 -0.962
vn 0.246 -0.113 -0.963
vn 0.262 0.103 -0.960
vn -0.094 0.275 -0.957
vn -0.270 -0.077 -0.960
vn -0.780 -0.543 0.310
vn 0.540 -0.784 0.307
vn 0.733 0.493 0.468
vn -0.498 0.727 0.472
vn -0.174 -0.946 0.272
vn 0.904 -0.172 0.391
vn 0.162 0.851 0.500
vn -0.904 0.163 0.396
vn -0.107 -0.538 -0.836
vn 0.541 -0.093 -0.836
vn 0.448 0.320 -0.835
vn -0.320 0.463 -0.827
vn -0.469 -0.305 -0.829
vn 0.309 -0.452 -0.837
vn 0.093 0.550 -0.830
vn -0.549 0.109 -0.829
vn -0.153 -0.861 0.485
vn 0.929 -0.177 0.325
vn 0.182 0.967 0.176
vn -0.916 0.167 0.366
vn -0.729 -0.507 0.460
vn 0.512 -0.741 0.435
vn 0.807 0.551 0.212
vn -0.549 0.800 0.243
vn -0.798 0.371 0.475
vn -0.265 0.877 0.401
vn 0.264 0.877 0.401
vn 0.839 0.348 0.419
vn 0.798 -0.228 0.557
vn 0.198 -0.785 0.587
vn -0.888 -0.227 0.400
vn -0.346 -0.839 0.421
vn -0.799 -0.370 0.475
vn 0.001 0.001 -1.000
vn -0.595 -0.789 0.154
vn -0.789 0.467 0.400
vn 0.466 0.790 0.400
vn 0.226 -0.888 0.401
vn 0.888 0.227 0.401
vn -0.465 -0.790 0.399
vn -0.228 0.887 0.401
vn 0.790 -0.466 0.399
vn -0.142 -0.981 0.133
vn 0.790 -0.594 0.152
vn 0.595 0.789 0.154
vn -0.791 0.592 0.153
vn -0.979 -0.136 0.155
vn 0.136 -0.979 0.152
vn 0.978 0.141 0.151
vn -0.136 0.979 0.153
vn 0.263 -0.355 -0.897
vn 0.980 -0.145 0.133
vn 0.143 0.981 0.132
vn -0.795 -0.592 0.132
vn 0.591 -0.795 0.134
vn 0.794 0.594 0.132
vn -0.597 0.791 0.133
vn -0.981 0.143 0.132
vn -0.686 -0.512 0.516
vn 0.435 -0.065 -0.898
vn 0.030 0.453 -0.891
vn -0.441 0.066 -0.895
vn -0.062 -0.438 -0.897
vn 0.353 0.264 -0.897
vn -0.278 0.375 -0.884
vn -0.354 -0.264 -0.897
vn 0.527 -0.704 0.477
vn 0.686 0.512 0.516
vn -0.512 0.687 0.516
vn -0.847 0.123 0.517
vn -0.057 -0.863 0.502
vn 0.851 -0.124 0.510
vn 0.121 0.848 0.515
vn -0.091 -0.642 -0.762
vn 0.519 0.387 -0.762
vn -0.388 0.518 -0.762
vn -0.520 -0.386 -0.762
vn 0.387 -0.518 -0.763
vn 0.640 -0.094 -0.763
vn 0.093 0.641 -0.762
vn -0.640 0.093 -0.763
vn -0.872 0.124 0.473
vn -0.129 -0.871 0.474
vn 0.872 -0.125 0.473
vn 0.127 0.871 0.474
vn -0.706 -0.527 0.474
vn 0.527 -0.706 0.473
vn 0.706 0.527 0.474
vn -0.526 0.707 0.474
vn -0.577 -0.415 -0.703
vn 0.415 -0.578 -0.703
vn 0.702 -0.117 -0.702
vn 0.116 0.701 -0.703
vn -0.702 0.116 -0.703
vn -0.117 -0.702 -0.703
vn 0.577 0.415 -0.703
vn -0.414 0.579 -0.702
vn -0.744 -0.534 0.401
vn 0.533 -0.745 0.401
vn 0.744 0.535 0.401
vn -0.535 0.744 0.401
vn -0.904 0.148 0.400
vn -0.150 -0.904 0.401
vn 0.904 -0.150 0.401
vn 0.150 0.904 0.401
vn 0.940 -0.156 0.304
vn 0.155 0.940 0.304
vn -0.774 -0.555 0.305
vn 0.554 -0.775 0.305
vn 0.773 0.556 0.303
vn -0.554 0.775 0.304
vn -0.940 0.154 0.305
vn -0.156 -0.939 0.305
vn -0.840 0.347 0.418
vn -0.371 0.894 0.252
vn 0.370 0.894 0.252
vn 0.839 0.349 0.418
vn 0.840 -0.349 0.417
vn 0.348 -0.840 0.417
vn -0.886 -0.366 0.285
vn -0.348 -0.839 0.418
vn -0.839 -0.347 0.419
vn 0.000 0.000 -1.000
vn 0.000 0.000 -1.000
vn -0.002 -0.002 -1.000
vn -0.002 0.001 -1.000
vn 0.001 0.001 -1.000
vn -0.506 -0.858 0.083
vn -0.886 0.367 0.285
vn 0.366 0.885 0.287
vn 0.367 -0.885 0.286
vn 0.885 0.368 0.285
vn -0.367 -0.885 0.286
vn -0.367 0.885 0.287
vn 0.885 -0.368 0.287
vn 0.137 -0.988 0.065
vn 0.858 -0.506 0.082
vn 0.506 0.858 0.083
vn -0.857 0.508 0.085
vn -0.965 -0.246 0.085
vn 0.247 -0.966 0.082
vn 0.965 0.246 0.084
vn -0.248 0.965 0.081
vn 0.265 -0.351 -0.898
vn 0.988 0.142 0.064
vn -0.137 0.989 0.064
vn -0.601 -0.797 0.064
vn 0.798 -0.600 0.064
vn 0.601 0.797 0.064
vn -0.799 0.598 0.065
vn -0.988 -0.138 0.064
vn -0.687 -0.512 0.516
vn 0.436 -0.063 -0.898
vn 0.067 0.469 -0.881
vn -0.438 0.069 -0.896
vn -0.063 -0.437 -0.897
vn 0.353 0.264 -0.897
vn -0.280 0.375 -0.884
vn -0.354 -0.264 -0.897
vn 0.526 -0.704 0.477
vn 0.688 0.511 0.515
vn -0.512 0.686 0.516
vn -0.848 0.123 0.516
vn -0.127 -0.875 0.468
vn 0.847 -0.134 0.514
vn 0.122 0.848 0.516
vn -0.032 -0.686 -0.727
vn 0.508 0.463 -0.726
vn -0.463 0.507 -0.727
vn -0.509 -0.464 -0.725
vn 0.463 -0.507 -0.727
vn 0.687 -0.031 -0.726
vn 0.031 0.687 -0.726
vn -0.687 0.031 -0.726
vn -0.894 0.040 0.446
vn -0.040 -0.894 0.446
vn 0.894 -0.040 0.446
vn 0.041 0.894 0.446
vn -0.661 -0.603 0.446
vn 0.603 -0.661 0.446
vn 0.661 0.603 0.446
vn -0.603 0.661 0.446
vn -0.565 -0.421 -0.710
vn 0.421 -0.566 -0.709
vn 0.696 -0.099 -0.711
vn 0.104 0.697 -0.709
vn -0.696 0.099 -0.711
vn -0.102 -0.697 -0.710
vn 0.564 0.421 -0.710
vn -0.422 0.564 -0.710
vn -0.745 -0.534 0.401
vn 0.533 -0.745 0.401
vn 0.743 0.535 0.401
vn -0.533 0.745 0.400
vn -0.904 0.150 0.401
vn -0.149 -0.904 0.401
vn 0.904 -0.149 0.401
vn 0.150 0.904 0.401
####################################
f 1//1 3//1 2//1
f 2//2 5//2 4//2
f 4//3 7//3 6//3
f 6//4 9//4 8//4
f 8//5 11//5 10//5
f 10//6 13//6 12//6
f 14//7 16//7 15//7
f 12//8 18//8 17//8
f 17//9 14//9 1//9
f 10//10 12//10 17//10
f 19//11 20//11 16//11
f 3//12 15//12 21//12
f 7//13 23//13 22//13
f 11//14 19//14 13//14
f 9//15 22//15 24//15
f 13//16 16//16 18//16
f 3//17 23//17 5//17
f 9//18 25//18 11//18
f 26//19 28//19 27//19
f 25//20 30//20 29//20
f 22//21 32//21 31//21
f 15//22 33//22 21//22
f 16//23 34//23 15//23
f 19//24 29//24 26//24
f 24//25 31//25 30//25
f 21//26 32//26 23//26
f 35//27 37//27 36//27
f 31//28 38//28 30//28
f 33//29 39//29 32//29
f 20//30 27//30 40//30
f 30//31 28//31 29//31
f 32//32 41//32 31//32
f 33//33 35//33 36//33
f 34//34 40//34 35//34
f 40//35 42//35 35//35
f 28//36 43//36 27//36
f 38//37 45//37 44//37
f 39//38 37//38 46//38
f 27//39 47//39 40//39
f 28//40 44//40 48//40
f 41//41 46//41 45//41
f 47//42 50//42 49//42
f 48//43 52//43 51//43
f 45//44 54//44 53//44
f 37//45 56//45 55//45
f 42//46 49//46 56//46
f 43//47 51//47 50//47
f 44//48 53//48 52//48
f 46//49 55//49 54//49
f 54//50 58//50 57//50
f 50//51 59//51 49//51
f 51//52 61//52 60//52
f 53//53 57//53 62//53
f 56//54 58//54 55//54
f 49//55 63//55 56//55
f 51//56 64//56 50//56
f 52//57 62//57 61//57
f 59//58 65//58 63//58
f 60//59 66//59 64//59
f 62//60 67//60 61//60
f 58//61 68//61 57//61
f 64//62 69//62 59//62
f 61//63 70//63 60//63
f 57//64 71//64 62//64
f 63//65 72//65 58//65
f 71//66 74//66 73//66
f 65//67 75//67 72//67
f 69//68 76//68 65//68
f 70//69 77//69 66//69
f 67//70 73//70 78//70
f 68//71 75//71 74//71
f 66//72 79//72 69//72
f 70//73 78//73 80//73
f 77//74 81//74 79//74
f 78//75 82//75 80//75
f 73//76 84//76 83//76
f 75//77 86//77 85//77
f 76//78 81//78 86//78
f 80//79 87//79 77//79
f 73//80 88//80 78//80
f 74//81 85//81 84//81
f 88//82 83//82 89//82
f 84//83 85//83 89//83
f 81//84 87//84 89//84
f 82//85 88//85 89//85
f 83//86 84//86 89//86
f 85//87 86//87 89//87
f 86//88 81//88 89//88
f 87//89 82//89 89//89
f 1//90 14//90 3//90
f 2//91 3//91 5//91
f 4//92 5//92 7//92
f 6//93 7//93 9//93
f 8//94 9//94 11//94
f 10//95 11//95 13//95
f 14//96 18//96 16//96
f 12//97 13//97 18//97
f 17//98 18//98 14//98
f 17//99 1//99 10//99
f 1//100 2//100 8//100
f 10//101 1//101 8//101
f 2//102 4//102 6//102
f 6//103 8//103 2//103
f 19//104 26//104 20//104
f 3//105 14//105 15//105
f 7//106 5//106 23//106
f 11//107 25//107 19//107
f 9//108 7//108 22//108
f 13//109 19//109 16//109
f 3//110 21//110 23//110
f 9//111 24//111 25//111
f 26//112 29//112 28//112
f 25//113 24//113 30//113
f 22//114 23//114 32//114
f 15//115 34//115 33//115
f 16//116 20//116 34//116
f 19//117 25//117 29//117
f 24//118 22//118 31//118
f 21//119 33//119 32//119
f 35//120 42//120 37//120
f 31//121 41//121 38//121
f 33//122 36//122 39//122
f 20//123 26//123 27//123
f 30//124 38//124 28//124
f 32//125 39//125 41//125
f 33//126 34//126 35//126
f 34//127 20//127 40//127
f 40//128 47//128 42//128
f 28//129 48//129 43//129
f 38//130 41//130 45//130
f 39//131 36//131 37//131
f 27//132 43//132 47//132
f 28//133 38//133 44//133
f 41//134 39//134 46//134
f 47//135 43//135 50//135
f 48//136 44//136 52//136
f 45//137 46//137 54//137
f 37//138 42//138 56//138
f 42//139 47//139 49//139
f 43//140 48//140 51//140
f 44//141 45//141 53//141
f 46//142 37//142 55//142
f 54//143 55//143 58//143
f 50//144 64//144 59//144
f 51//145 52//145 61//145
f 53//146 54//146 57//146
f 56//147 63//147 58//147
f 49//148 59//148 63//148
f 51//149 60//149 64//149
f 52//150 53//150 62//150
f 59//151 69//151 65//151
f 60//152 70//152 66//152
f 62//153 71//153 67//153
f 58//154 72//154 68//154
f 64//155 66//155 69//155
f 61//156 67//156 70//156
f 57//157 68//157 71//157
f 63//158 65//158 72//158
f 71//159 68//159 74//159
f 65//160 76//160 75//160
f 69//161 79//161 76//161
f 70//162 80//162 77//162
f 67//163 71//163 73//163
f 68//164 72//164 75//164
f 66//165 77//165 79//165
f 70//166 67//166 78//166
f 77//167 87//167 81//167
f 78//168 88//168 82//168
f 73//169 74//169 84//169
f 75//170 76//170 86//170
f 76//171 79//171 81//171
f 80//172 82//172 87//172
f 73//173 83//173 88//173
f 74//174 75//174 85//174
f 90//175 92//175 91//175
f 93//176 94//176 92//176
f 94//177 96//177 95//177
f 96//178 97//178 95//178
f 97//179 99//179 98//179
f 99//180 100//180 98//180
f 90//181 102//181 101//181
f 100//182 104//182 103//182
f 103//183 90//183 91//183
f 100//184 94//184 97//184
f 102//185 106//185 105//185
f 93//186 101//186 107//186
f 96//187 109//187 108//187
f 110//188 112//188 111//188
f 113//189 108//189 114//189
f 104//190 111//190 102//190
f 115//191 107//191 109//191
f 99//192 114//192 112//192
f 106//193 117//193 116//193
f 112//194 119//194 118//194
f 108//195 121//195 120//195
f 107//196 123//196 122//196
f 101//197 105//197 123//197
f 111//198 118//198 106//198
f 114//199 120//199 119//199
f 109//200 122//200 121//200
f 124//201 126//201 125//201
f 119//202 128//202 127//202
f 121//203 124//203 129//203
f 105//204 116//204 130//204
f 118//205 127//205 117//205
f 120//206 129//206 128//206
f 122//207 131//207 124//207
f 123//208 130//208 131//208
f 132//209 134//209 133//209
f 130//210 126//210 131//210
f 116//211 135//211 132//211
f 128//212 136//212 127//212
f 124//213 137//213 129//213
f 116//214 133//214 130//214
f 127//215 135//215 117//215
f 129//216 138//216 128//216
f 135//217 140//217 139//217
f 137//218 141//218 138//218
f 126//219 142//219 125//219
f 126//220 134//220 143//220
f 135//221 144//221 132//221
f 136//222 141//222 140//222
f 137//223 142//223 145//223
f 142//224 146//224 145//224
f 144//225 147//225 134//225
f 140//226 148//226 139//226
f 145//227 149//227 141//227
f 143//228 150//228 142//228
f 134//229 151//229 143//229
f 139//230 152//230 144//230
f 141//231 153//231 140//231
f 151//232 155//232 154//232
f 152//233 157//233 156//233
f 153//234 159//234 158//234
f 146//235 161//235 160//235
f 147//236 156//236 155//236
f 148//237 158//237 157//237
f 149//238 160//238 159//238
f 150//239 154//239 161//239
f 159//240 163//240 162//240
f 161//241 165//241 164//241
f 154//242 166//242 165//242
f 156//243 168//243 167//243
f 158//244 162//244 169//244
f 160//245 164//245 163//245
f 155//246 167//246 166//246
f 157//247 169//247 168//247
f 167//248 170//248 166//248
f 169//249 171//249 168//249
f 163//250 172//250 162//250
f 165//251 173//251 164//251
f 165//252 170//252 174//252
f 167//253 171//253 175//253
f 169//254 172//254 176//254
f 163//255 173//255 177//255
f 176//256 172//256 178//256
f 177//257 173//257 178//257
f 170//258 175//258 178//258
f 171//259 176//259 178//259
f 172//260 177//260 178//260
f 173//261 174//261 178//261
f 174//262 170//262 178//262
f 175//263 171//263 178//263
f 90//264 93//264 92//264
f 93//265 115//265 94//265
f 94//266 115//266 96//266
f 96//267 113//267 97//267
f 97//268 113//268 99//268
f 99//269 110//269 100//269
f 90//270 104//270 102//270
f 100//271 110//271 104//271
f 103//272 104//272 90//272
f 103//273 91//273 92//273
f 92//274 94//274 103//274
f 94//275 95//275 97//275
f 103//276 94//276 100//276
f 97//277 98//277 100//277
f 102//278 111//278 106//278
f 93//279 90//279 101//279
f 96//280 115//280 109//280
f 110//281 99//281 112//281
f 113//282 96//282 108//282
f 104//283 110//283 111//283
f 115//284 93//284 107//284
f 99//285 113//285 114//285
f 106//286 118//286 117//286
f 112//287 114//287 119//287
f 108//288 109//288 121//288
f 107//289 101//289 123//289
f 101//290 102//290 105//290
f 111//291 112//291 118//291
f 114//292 108//292 120//292
f 109//293 107//293 122//293
f 124//294 131//294 126//294
f 119//295 120//295 128//295
f 121//296 122//296 124//296
f 105//297 106//297 116//297
f 118//298 119//298 127//298
f 120//299 121//299 129//299
f 122//300 123//300 131//300
f 123//301 105//301 130//301
f 132//302 144//302 134//302
f 130//303 133//303 126//303
f 116//304 117//304 135//304
f 128//305 138//305 136//305
f 124//306 125//306 137//306
f 116//307 132//307 133//307
f 127//308 136//308 135//308
f 129//309 137//309 138//309
f 135//310 136//310 140//310
f 137//311 145//311 141//311
f 126//312 143//312 142//312
f 126//313 133//313 134//313
f 135//314 139//314 144//314
f 136//315 138//315 141//315
f 137//316 125//316 142//316
f 142//317 150//317 146//317
f 144//318 152//318 147//318
f 140//319 153//319 148//319
f 145//320 146//320 149//320
f 143//321 151//321 150//321
f 134//322 147//322 151//322
f 139//323 148//323 152//323
f 141//324 149//324 153//324
f 151//325 147//325 155//325
f 152//326 148//326 157//326
f 153//327 149//327 159//327
f 146//328 150//328 161//328
f 147//329 152//329 156//329
f 148//330 153//330 158//330
f 149//331 146//331 160//331
f 150//332 151//332 154//332
f 159//333 160//333 163//333
f 161//334 154//334 165//334
f 154//335 155//335 166//335
f 156//336 157//336 168//336
f 158//337 159//337 162//337
f 160//338 161//338 164//338
f 155//339 156//339 167//339
f 157//340 158//340 169//340
f 167//341 175//341 170//341
f 169//342 176//342 171//342
f 163//343 177//343 172//343
f 165//344 174//344 173//344
f 165//345 166//345 170//345
f 167//346 168//346 171//346
f 169//347 162//347 172//347
f 163//348 164//348 173//348
####################################
