####################################
# netfabb Wavefront export         #
####################################
v 10.54139 0.72673 2.50317
v 9.39039 1.18473 2.50217
v 10.21639 1.40773 3.23517
v 10.92439 0.38773 1.50217
v 9.20939 0.54273 1.50317
v 9.50839 3.80173 1.50317
v 8.92239 2.38773 1.50317
v 9.25239 2.37873 1.22217
v 9.49339 0.81373 1.22217
v 9.25339 2.80973 2.50217
v 9.92339 2.38673 3.23517
v 13.51639 2.38673 1.50317
v 13.12839 3.96973 1.50317
v 12.81639 3.72073 1.22217
v 10.02839 3.88673 2.50217
v 10.21739 3.09373 3.23417
v 10.92239 4.38773 1.50217
v 12.51339 0.76173 1.50217
v 13.14639 2.37773 1.22217
v 11.33739 4.09773 2.50217
v 10.92339 3.38773 3.23517
v 12.29539 1.00073 1.22117
v 12.90839 3.20673 2.50217
v 11.87639 3.18173 3.23417
v 13.05339 1.91373 2.50217
v 11.92439 2.38873 3.23417
v 10.94739 0.68273 1.22217
v 11.82639 0.83673 2.50217
v 11.63039 1.67973 3.23517
v 10.94739 4.07373 1.22117
v 10.92339 1.38673 3.23517
v 9.75039 3.57573 1.22217
v 11.17639 7.15573 3.75017
v 11.26139 5.98773 3.01817
v 10.43539 6.16773 3.01817
v 11.08039 5.50973 2.01817
v 10.14739 5.70373 2.01917
v 11.24839 8.62973 3.90917
v 10.36939 7.90773 3.75017
v 10.28539 8.65673 3.75017
v 9.50639 6.67273 2.01817
v 10.69739 7.35473 3.75117
v 9.83039 7.03573 3.01917
v 9.30439 8.15073 2.01817
v 10.39739 9.33873 3.75117
v 10.72239 9.75173 3.74917
v 9.56839 8.34073 3.01817
v 9.52539 9.56273 2.01817
v 9.68139 9.55173 3.01817
v 10.15339 10.43873 2.01817
v 10.17939 10.29773 3.01817
v 10.97539 10.54373 3.01817
v 11.07939 10.71473 2.01817
v 11.20239 9.83673 3.75017
v 11.85639 10.22773 3.01917
v 12.07739 10.30973 2.01817
v 11.68639 9.59973 3.75017
v 12.54639 9.43773 3.01817
v 12.83239 9.36773 2.01817
v 12.05039 9.10173 3.75117
v 12.84339 8.39173 3.01817
v 13.12039 8.16773 2.01817
v 12.67039 7.30673 3.01917
v 12.03539 7.81173 3.75017
v 12.83339 6.96573 2.01817
v 12.17539 8.45473 3.75017
v 12.08639 6.43173 3.01817
v 11.65839 7.33473 3.75117
v 12.07439 6.00573 2.01817
v 12.06439 5.99273 1.75617
v 11.08339 10.66173 1.75517
v 9.53939 9.51873 1.75517
v 10.16139 10.38973 1.75517
v 10.15439 5.69373 1.75517
v 9.52039 6.65473 1.75517
v 13.10039 8.13673 1.75617
v 12.81639 6.94473 1.75517
v 12.07039 10.25873 1.75517
v 9.31939 8.12073 1.75617
v 11.08039 5.50173 1.75517
v 12.82039 9.32573 1.75517
v 9.71539 9.34073 1.53917
v 10.26539 10.11073 1.53817
v 11.96939 6.21973 1.53917
v 11.08939 5.78473 1.53817
v 10.25939 5.95373 1.53917
v 12.62639 9.16873 1.53917
v 11.09239 10.35273 1.53817
v 9.69839 6.80473 1.53917
v 12.88639 8.11673 1.53917
v 9.52039 8.10273 1.53817
v 12.62239 7.06073 1.53817
v 11.97739 9.99673 1.53917
####################################
vn -0.303 -0.761 0.573
vn -0.086 -0.953 0.290
vn -0.622 0.258 -0.739
vn -0.952 -0.148 0.268
vn -0.649 -0.101 -0.754
vn -0.755 -0.064 0.653
vn -0.914 0.379 0.143
vn 0.595 0.146 -0.790
vn -0.621 0.447 0.644
vn -0.380 0.917 0.120
vn 0.571 -0.352 -0.741
vn -0.120 0.746 0.655
vn 0.162 -0.686 -0.709
vn 0.399 0.704 0.587
vn 0.182 0.962 0.203
vn 0.561 0.063 0.825
vn 0.903 0.221 0.368
vn -0.062 -0.685 -0.726
vn 0.457 -0.521 0.721
vn 0.842 -0.520 0.144
vn 0.126 0.667 -0.734
vn 0.065 -0.758 0.649
vn 0.001 0.000 -1.000
vn 0.223 -0.949 0.225
vn -0.261 0.630 -0.732
vn 0.001 0.000 1.000
vn -0.022 -0.737 0.676
vn -0.308 -0.774 0.553
vn -0.620 0.258 -0.741
vn -0.936 -0.079 0.343
vn -0.647 -0.100 -0.756
vn -0.623 -0.187 0.759
vn -0.761 0.547 0.349
vn 0.596 0.146 -0.789
vn -0.631 0.264 0.729
vn -0.150 0.931 0.332
vn 0.571 -0.352 -0.742
vn -0.260 0.621 0.740
vn 0.161 -0.686 -0.709
vn 0.145 0.668 0.729
vn 0.390 0.688 0.612
vn 0.578 0.035 0.816
vn 0.884 0.099 0.457
vn -0.062 -0.686 -0.725
vn 0.474 -0.195 0.858
vn 0.588 -0.670 0.454
vn 0.127 0.668 -0.733
vn 0.249 -0.602 0.759
vn -0.001 0.000 -1.000
vn 0.000 0.000 -1.000
vn 0.000 0.000 -1.000
vn -0.001 0.000 -1.000
vn 0.001 0.000 -1.000
vn 0.080 -0.934 0.347
vn -0.263 0.632 -0.729
vn 0.000 0.000 1.000
vn -0.001 0.002 1.000
vn 0.001 0.000 1.000
vn -0.002 0.002 1.000
vn 0.000 0.000 1.000
vn -0.116 -0.534 0.838
vn -0.181 -0.871 0.457
vn -0.163 -0.018 0.986
vn -0.747 -0.494 0.445
vn -0.520 -0.363 0.774
vn -0.929 -0.127 0.347
vn -0.109 0.090 0.990
vn -0.708 -0.142 0.691
vn -0.963 0.151 0.225
vn -0.727 0.068 0.683
vn -0.808 0.580 0.103
vn -0.596 0.398 0.698
vn -0.216 0.699 0.682
vn -0.283 0.950 0.133
vn 0.262 0.733 0.627
vn 0.371 0.915 0.157
vn 0.065 0.133 0.989
vn 0.606 0.528 0.595
vn 0.768 0.616 0.177
vn -0.042 -0.105 0.994
vn 0.760 0.216 0.613
vn 0.950 0.228 0.212
vn 0.710 -0.113 0.695
vn 0.946 -0.226 0.231
vn 0.162 -0.035 0.986
vn 0.540 -0.361 0.760
vn 0.760 -0.601 0.247
vn 0.422 -0.845 0.328
vn 0.446 -0.894 0.027
vn 0.268 -0.498 0.825
vn 0.370 0.912 -0.178
vn -0.806 0.575 -0.139
vn -0.835 -0.551 -0.001
vn 0.972 -0.232 -0.047
vn 0.784 -0.620 -0.001
vn 0.773 0.619 -0.141
vn -0.985 0.155 -0.074
vn -0.990 -0.136 -0.043
vn -0.278 0.943 -0.184
vn -0.203 -0.979 0.030
vn 0.969 0.233 -0.081
vn -0.537 0.382 -0.752
vn 0.294 -0.593 -0.749
vn -0.570 -0.376 -0.730
vn 0.675 0.158 -0.721
vn -0.166 0.566 -0.807
vn -0.733 -0.100 -0.673
vn 0.710 -0.168 -0.684
vn 0.230 0.564 -0.793
vn -0.726 0.115 -0.678
vn 0.549 -0.427 -0.719
vn -0.123 -0.601 -0.789
vn 0.525 0.422 -0.739
vn 0.000 0.001 -1.000
vn 0.135 0.101 0.986
vn -0.199 -0.483 0.853
vn -0.190 -0.872 0.451
vn -0.162 0.025 0.986
vn -0.741 -0.517 0.428
vn -0.540 -0.319 0.779
vn -0.940 -0.189 0.284
vn -0.025 0.130 0.991
vn -0.695 -0.078 0.715
vn -0.984 0.092 0.154
vn -0.694 0.113 0.711
vn -0.824 0.550 0.135
vn -0.541 0.429 0.723
vn -0.124 0.694 0.709
vn -0.292 0.946 0.141
vn 0.331 0.676 0.658
vn 0.331 0.924 0.192
vn 0.625 0.458 0.633
vn 0.736 0.642 0.215
vn -0.121 -0.070 0.990
vn 0.737 0.141 0.661
vn 0.932 0.265 0.248
vn 0.723 -0.157 0.673
vn 0.944 -0.150 0.295
vn 0.038 -0.109 0.993
vn 0.111 -0.086 0.990
vn 0.526 -0.414 0.743
vn 0.791 -0.528 0.309
vn 0.445 -0.826 0.347
vn 0.446 -0.894 0.027
vn 0.205 -0.556 0.805
vn 0.371 0.910 -0.186
vn -0.806 0.578 -0.132
vn -0.834 -0.552 -0.007
vn 0.972 -0.232 -0.044
vn 0.785 -0.620 0.001
vn 0.772 0.621 -0.134
vn -0.985 0.154 -0.078
vn -0.990 -0.135 -0.041
vn -0.280 0.940 -0.194
vn -0.203 -0.979 0.032
vn 0.968 0.228 -0.101
vn -0.537 0.384 -0.751
vn 0.294 -0.587 -0.754
vn -0.570 -0.376 -0.731
vn 0.694 0.171 -0.700
vn -0.166 0.563 -0.809
vn -0.736 -0.101 -0.670
vn 0.687 -0.171 -0.706
vn 0.230 0.569 -0.789
vn -0.723 0.113 -0.682
vn 0.557 -0.440 -0.704
vn -0.125 -0.604 -0.787
vn 0.515 0.404 -0.756
vn 0.000 0.002 -1.000
vn -0.001 -0.001 -1.000
vn 0.000 -0.001 -1.000
vn 0.000 -0.001 -1.000
vn 0.000 0.001 -1.000
vn 0.000 -0.002 -1.000
vn 0.000 -0.002 -1.000
vn 0.000 0.000 -1.000
vn 0.000 0.000 -1.000
vn 0.175 0.032 0.984
####################################
f 1//1 3//1 2//1
f 1//2 5//2 4//2
f 6//3 8//3 7//3
f 2//4 7//4 5//4
f 7//5 9//5 5//5
f 2//6 11//6 10//6
f 10//7 6//7 7//7
f 12//8 14//8 13//8
f 10//9 16//9 15//9
f 15//10 17//10 6//10
f 18//11 19//11 12//11
f 15//12 21//12 20//12
f 4//13 22//13 18//13
f 20//14 24//14 23//14
f 20//15 13//15 17//15
f 23//16 26//16 25//16
f 23//17 12//17 13//17
f 4//18 9//18 27//18
f 25//19 29//19 28//19
f 25//20 18//20 12//20
f 17//21 14//21 30//21
f 28//22 31//22 1//22
f 22//23 30//23 19//23
f 28//24 4//24 18//24
f 17//25 32//25 6//25
f 26//26 21//26 11//26
f 1//27 31//27 3//27
f 1//28 2//28 5//28
f 6//29 32//29 8//29
f 2//30 10//30 7//30
f 7//31 8//31 9//31
f 2//32 3//32 11//32
f 10//33 15//33 6//33
f 12//34 19//34 14//34
f 10//35 11//35 16//35
f 15//36 20//36 17//36
f 18//37 22//37 19//37
f 15//38 16//38 21//38
f 4//39 27//39 22//39
f 20//40 21//40 24//40
f 20//41 23//41 13//41
f 23//42 24//42 26//42
f 23//43 25//43 12//43
f 4//44 5//44 9//44
f 25//45 26//45 29//45
f 25//46 28//46 18//46
f 17//47 13//47 14//47
f 28//48 29//48 31//48
f 22//49 27//49 30//49
f 27//50 9//50 8//50
f 32//51 27//51 8//51
f 32//52 30//52 27//52
f 30//53 14//53 19//53
f 28//54 1//54 4//54
f 17//55 30//55 32//55
f 11//56 3//56 31//56
f 31//57 29//57 26//57
f 26//58 24//58 21//58
f 21//59 16//59 11//59
f 11//60 31//60 26//60
f 33//61 35//61 34//61
f 36//62 35//62 37//62
f 38//63 40//63 39//63
f 35//64 41//64 37//64
f 42//65 43//65 35//65
f 43//66 44//66 41//66
f 38//67 46//67 45//67
f 39//68 47//68 43//68
f 47//69 48//69 44//69
f 40//70 49//70 47//70
f 48//71 51//71 50//71
f 45//72 51//72 49//72
f 46//73 52//73 51//73
f 50//74 52//74 53//74
f 54//75 55//75 52//75
f 53//76 55//76 56//76
f 54//77 38//77 57//77
f 57//78 58//78 55//78
f 56//79 58//79 59//79
f 38//80 42//80 33//80
f 60//81 61//81 58//81
f 59//82 61//82 62//82
f 61//83 64//83 63//83
f 62//84 63//84 65//84
f 64//85 66//85 38//85
f 63//86 68//86 67//86
f 65//87 67//87 69//87
f 69//88 34//88 36//88
f 36//89 70//89 69//89
f 67//90 33//90 34//90
f 56//91 71//91 53//91
f 48//92 73//92 72//92
f 37//93 75//93 74//93
f 65//94 76//94 62//94
f 69//95 77//95 65//95
f 59//96 78//96 56//96
f 44//97 72//97 79//97
f 41//98 79//98 75//98
f 50//99 71//99 73//99
f 36//100 74//100 80//100
f 62//101 81//101 59//101
f 72//102 83//102 82//102
f 70//103 85//103 84//103
f 75//104 86//104 74//104
f 76//105 87//105 81//105
f 73//106 88//106 83//106
f 79//107 89//107 75//107
f 77//108 90//108 76//108
f 78//109 88//109 71//109
f 79//110 82//110 91//110
f 77//111 84//111 92//111
f 80//112 86//112 85//112
f 81//113 93//113 78//113
f 90//114 92//114 91//114
f 38//115 60//115 57//115
f 33//116 42//116 35//116
f 36//117 34//117 35//117
f 38//118 45//118 40//118
f 35//119 43//119 41//119
f 42//120 39//120 43//120
f 43//121 47//121 44//121
f 38//122 54//122 46//122
f 39//123 40//123 47//123
f 47//124 49//124 48//124
f 40//125 45//125 49//125
f 48//126 49//126 51//126
f 45//127 46//127 51//127
f 46//128 54//128 52//128
f 50//129 51//129 52//129
f 54//130 57//130 55//130
f 53//131 52//131 55//131
f 57//132 60//132 58//132
f 56//133 55//133 58//133
f 38//134 39//134 42//134
f 60//135 66//135 61//135
f 59//136 58//136 61//136
f 61//137 66//137 64//137
f 62//138 61//138 63//138
f 33//139 68//139 38//139
f 68//140 64//140 38//140
f 63//141 64//141 68//141
f 65//142 63//142 67//142
f 69//143 67//143 34//143
f 36//144 80//144 70//144
f 67//145 68//145 33//145
f 56//146 78//146 71//146
f 48//147 50//147 73//147
f 37//148 41//148 75//148
f 65//149 77//149 76//149
f 69//150 70//150 77//150
f 59//151 81//151 78//151
f 44//152 48//152 72//152
f 41//153 44//153 79//153
f 50//154 53//154 71//154
f 36//155 37//155 74//155
f 62//156 76//156 81//156
f 72//157 73//157 83//157
f 70//158 80//158 85//158
f 75//159 89//159 86//159
f 76//160 90//160 87//160
f 73//161 71//161 88//161
f 79//162 91//162 89//162
f 77//163 92//163 90//163
f 78//164 93//164 88//164
f 79//165 72//165 82//165
f 77//166 70//166 84//166
f 80//167 74//167 86//167
f 81//168 87//168 93//168
f 84//169 85//169 89//169
f 85//170 86//170 89//170
f 89//171 91//171 92//171
f 84//172 89//172 92//172
f 91//173 82//173 87//173
f 82//174 83//174 88//174
f 93//175 82//175 88//175
f 93//176 87//176 82//176
f 87//177 90//177 91//177
f 38//178 66//178 60//178
####################################
